<?xml version="1.0" encoding="UTF-8" standalone="no"?><svg xmlns="http://www.w3.org/2000/svg" xmlns:xlink="http://www.w3.org/1999/xlink" contentScriptType="application/ecmascript" contentStyleType="text/css" height="761px" preserveAspectRatio="none" style="width:1258px;height:761px;background:#FFFFFF;" version="1.1" viewBox="0 0 1258 761" width="1258px" zoomAndPan="magnify"><defs><filter height="300%" id="fc2dmmwufyckp" width="300%" x="-1" y="-1"><feGaussianBlur result="blurOut" stdDeviation="2.0"/><feColorMatrix in="blurOut" result="blurOut2" type="matrix" values="0 0 0 0 0 0 0 0 0 0 0 0 0 0 0 0 0 0 .4 0"/><feOffset dx="4.0" dy="4.0" in="blurOut2" result="blurOut3"/><feBlend in="SourceGraphic" in2="blurOut3" mode="normal"/></filter></defs><g><!--MD5=[e63ccd782b078470c6cfc5c8c82a8ced]
cluster fr.unice.polytech.citadelle.game_engine--><polygon fill="#FFFFFF" filter="url(#fc2dmmwufyckp)" points="16,6,303,6,310,29.6094,1241,29.6094,1241,754,16,754,16,6" style="stroke:#000000;stroke-width:1.5;"/><line style="stroke:#000000;stroke-width:1.5;" x1="16" x2="310" y1="29.6094" y2="29.6094"/><text fill="#000000" font-family="sans-serif" font-size="14" font-weight="bold" lengthAdjust="spacing" textLength="281" x="20" y="22.5332">fr.unice.polytech.citadelle.game_engine</text><!--MD5=[cce848642b07dcd690dffe3fb43c00db]
class fr.unice.polytech.citadelle.game_engine.Controller--><rect codeLine="1" fill="#FEFECE" filter="url(#fc2dmmwufyckp)" height="131.0156" id="fr.unice.polytech.citadelle.game_engine.Controller" style="stroke:#A80036;stroke-width:1.5;" width="181" x="262.5" y="97.5"/><ellipse cx="321.75" cy="113.5" fill="#ADD1B2" rx="11" ry="11" style="stroke:#A80036;stroke-width:1.0;"/><path d="M323.75,110 Q323.9531,109.5 324.1875,109.25 Q324.4219,109 324.6875,109 Q325.1563,109 325.4531,109.2813 Q325.75,109.5625 325.75,110.2188 L325.75,111.7813 Q325.75,112.4375 325.4688,112.7188 Q325.1875,113 324.75,113 Q324.3594,113 324.1094,112.8281 Q323.8594,112.6563 323.75,112.2031 Q323.7031,111.8906 323.5313,111.7188 Q323.2188,111.3906 322.6563,111.2031 Q322.0938,111 321.5313,111 Q320.8281,111 320.2344,111.2813 Q319.6563,111.5625 319.2031,112.1875 Q318.75,112.8125 318.75,113.6719 L318.75,114.5938 Q318.75,115.625 319.5938,116.3125 Q320.4375,117 321.9375,117 Q322.8281,117 323.4531,116.7969 Q323.8125,116.6875 324.2188,116.3281 Q324.4844,116.125 324.625,116.0625 Q324.7656,116 324.9375,116 Q325.2656,116 325.5,116.2656 Q325.75,116.5156 325.75,116.875 Q325.75,117.2188 325.4063,117.625 Q324.9063,118.2188 324.1094,118.5469 Q323.0625,119 321.7813,119 Q320.2813,119 319.0781,118.4063 Q318.1094,117.9375 317.4219,116.9219 Q316.75,115.9063 316.75,114.7031 L316.75,113.6094 Q316.75,112.3594 317.3438,111.2656 Q317.9531,110.1719 319,109.5938 Q320.0625,109 321.25,109 Q321.9688,109 322.5938,109.25 Q323.2188,109.5 323.75,110 Z " fill="#000000"/><text fill="#000000" font-family="sans-serif" font-size="12" lengthAdjust="spacing" textLength="54" x="342.25" y="118.4102">Controller</text><line style="stroke:#A80036;stroke-width:1.5;" x1="263.5" x2="442.5" y1="129.5" y2="129.5"/><rect fill="none" height="6" style="stroke:#C82930;stroke-width:1.0;" width="6" x="270.5" y="137.5"/><text fill="#000000" font-family="sans-serif" font-size="11" lengthAdjust="spacing" textLength="146" x="282.5" y="144.9189">RoundManager roundManager</text><rect fill="none" height="6" style="stroke:#C82930;stroke-width:1.0;" width="6" x="270.5" y="151.3359"/><text fill="#000000" font-family="sans-serif" font-size="11" lengthAdjust="spacing" textLength="78" x="282.5" y="158.7549">Referee referee</text><line style="stroke:#A80036;stroke-width:1.5;" x1="263.5" x2="442.5" y1="165.1719" y2="165.1719"/><ellipse cx="273.5" cy="176.1719" fill="#84BE84" rx="3" ry="3" style="stroke:#038048;stroke-width:1.0;"/><text fill="#000000" font-family="sans-serif" font-size="11" lengthAdjust="spacing" textLength="101" x="282.5" y="180.5908">«Create» Controller()</text><ellipse cx="273.5" cy="190.0078" fill="#84BE84" rx="3" ry="3" style="stroke:#038048;stroke-width:1.0;"/><text fill="#000000" font-family="sans-serif" font-size="11" lengthAdjust="spacing" textLength="72" x="282.5" y="194.4268">void initGame()</text><ellipse cx="273.5" cy="203.8438" fill="#84BE84" rx="3" ry="3" style="stroke:#038048;stroke-width:1.0;"/><text fill="#000000" font-family="sans-serif" font-size="11" lengthAdjust="spacing" textLength="75" x="282.5" y="208.2627">void runGame()</text><ellipse cx="273.5" cy="217.6797" fill="#84BE84" rx="3" ry="3" style="stroke:#038048;stroke-width:1.0;"/><text fill="#000000" font-family="sans-serif" font-size="11" lengthAdjust="spacing" textLength="155" x="282.5" y="222.0986">void end(ArrayList&lt;Behaviour&gt;)</text><!--MD5=[634a6a0847bf01d6ba2b2d5084f9b0ca]
class fr.unice.polytech.citadelle.game_engine.Referee--><rect codeLine="9" fill="#FEFECE" filter="url(#fc2dmmwufyckp)" height="241.7031" id="fr.unice.polytech.citadelle.game_engine.Referee" style="stroke:#A80036;stroke-width:1.5;" width="328" x="479" y="42"/><ellipse cx="616.75" cy="58" fill="#ADD1B2" rx="11" ry="11" style="stroke:#A80036;stroke-width:1.0;"/><path d="M618.75,54.5 Q618.9531,54 619.1875,53.75 Q619.4219,53.5 619.6875,53.5 Q620.1563,53.5 620.4531,53.7813 Q620.75,54.0625 620.75,54.7188 L620.75,56.2813 Q620.75,56.9375 620.4688,57.2188 Q620.1875,57.5 619.75,57.5 Q619.3594,57.5 619.1094,57.3281 Q618.8594,57.1563 618.75,56.7031 Q618.7031,56.3906 618.5313,56.2188 Q618.2188,55.8906 617.6563,55.7031 Q617.0938,55.5 616.5313,55.5 Q615.8281,55.5 615.2344,55.7813 Q614.6563,56.0625 614.2031,56.6875 Q613.75,57.3125 613.75,58.1719 L613.75,59.0938 Q613.75,60.125 614.5938,60.8125 Q615.4375,61.5 616.9375,61.5 Q617.8281,61.5 618.4531,61.2969 Q618.8125,61.1875 619.2188,60.8281 Q619.4844,60.625 619.625,60.5625 Q619.7656,60.5 619.9375,60.5 Q620.2656,60.5 620.5,60.7656 Q620.75,61.0156 620.75,61.375 Q620.75,61.7188 620.4063,62.125 Q619.9063,62.7188 619.1094,63.0469 Q618.0625,63.5 616.7813,63.5 Q615.2813,63.5 614.0781,62.9063 Q613.1094,62.4375 612.4219,61.4219 Q611.75,60.4063 611.75,59.2031 L611.75,58.1094 Q611.75,56.8594 612.3438,55.7656 Q612.9531,54.6719 614,54.0938 Q615.0625,53.5 616.25,53.5 Q616.9688,53.5 617.5938,53.75 Q618.2188,54 618.75,54.5 Z " fill="#000000"/><text fill="#000000" font-family="sans-serif" font-size="12" lengthAdjust="spacing" textLength="44" x="637.25" y="62.9102">Referee</text><line style="stroke:#A80036;stroke-width:1.5;" x1="480" x2="806" y1="74" y2="74"/><ellipse cx="490" cy="85" rx="3" ry="3" style="stroke:#038048;stroke-width:1.0;fill:none;"/><text fill="#000000" font-family="sans-serif" font-size="11" lengthAdjust="spacing" text-decoration="underline" textLength="84" x="499" y="89.4189">int BONUS_FIRST</text><ellipse cx="490" cy="98.8359" rx="3" ry="3" style="stroke:#038048;stroke-width:1.0;fill:none;"/><text fill="#000000" font-family="sans-serif" font-size="11" lengthAdjust="spacing" text-decoration="underline" textLength="76" x="499" y="103.2549">int BONUS_END</text><rect fill="none" height="6" style="stroke:#C82930;stroke-width:1.0;" width="6" x="487" y="109.6719"/><text fill="#000000" font-family="sans-serif" font-size="11" lengthAdjust="spacing" textLength="60" x="499" y="117.0908">Board board</text><line style="stroke:#A80036;stroke-width:1.5;" x1="480" x2="806" y1="123.5078" y2="123.5078"/><ellipse cx="490" cy="134.5078" fill="#84BE84" rx="3" ry="3" style="stroke:#038048;stroke-width:1.0;"/><text fill="#000000" font-family="sans-serif" font-size="11" lengthAdjust="spacing" textLength="123" x="499" y="138.9268">«Create» Referee(Board)</text><ellipse cx="490" cy="148.3438" fill="#84BE84" rx="3" ry="3" style="stroke:#038048;stroke-width:1.0;"/><text fill="#000000" font-family="sans-serif" font-size="11" lengthAdjust="spacing" textLength="192" x="499" y="152.7627">void updatePlayerWithCityScore(Player)</text><ellipse cx="490" cy="162.1797" fill="#84BE84" rx="3" ry="3" style="stroke:#038048;stroke-width:1.0;"/><text fill="#000000" font-family="sans-serif" font-size="11" lengthAdjust="spacing" textLength="238" x="499" y="166.5986">void addBonusForPlayers(ArrayList&lt;Behaviour&gt;)</text><ellipse cx="490" cy="176.0156" fill="#84BE84" rx="3" ry="3" style="stroke:#038048;stroke-width:1.0;"/><text fill="#000000" font-family="sans-serif" font-size="11" lengthAdjust="spacing" textLength="131" x="499" y="180.4346">int cityDistrictScore(Player)</text><ellipse cx="490" cy="189.8516" fill="#84BE84" rx="3" ry="3" style="stroke:#038048;stroke-width:1.0;"/><text fill="#000000" font-family="sans-serif" font-size="11" lengthAdjust="spacing" textLength="181" x="499" y="194.2705">boolean hasFiveDistrictColors(Player)</text><ellipse cx="490" cy="203.6875" fill="#84BE84" rx="3" ry="3" style="stroke:#038048;stroke-width:1.0;"/><text fill="#000000" font-family="sans-serif" font-size="11" lengthAdjust="spacing" textLength="80" x="499" y="208.1064">void getWinner()</text><rect fill="#F24D5C" height="6" style="stroke:#C82930;stroke-width:1.0;" width="6" x="487" y="214.5234"/><text fill="#000000" font-family="sans-serif" font-size="11" lengthAdjust="spacing" textLength="288" x="499" y="221.9424">ArrayList&lt;BonusDistrict&gt; isThereBonusDistrictInCity(Player)</text><rect fill="#F24D5C" height="6" style="stroke:#C82930;stroke-width:1.0;" width="6" x="487" y="228.3594"/><text fill="#000000" font-family="sans-serif" font-size="11" lengthAdjust="spacing" textLength="254" x="499" y="235.7783">void activateBonus(Player,ArrayList&lt;BonusDistrict&gt;)</text><ellipse cx="490" cy="245.1953" fill="#84BE84" rx="3" ry="3" style="stroke:#038048;stroke-width:1.0;"/><text fill="#000000" font-family="sans-serif" font-size="11" lengthAdjust="spacing" textLength="302" x="499" y="249.6143">ArrayList&lt;HauntedCity&gt; isThereHauntedCityJokerInCity(Player)</text><ellipse cx="490" cy="259.0313" fill="#84BE84" rx="3" ry="3" style="stroke:#038048;stroke-width:1.0;"/><text fill="#000000" font-family="sans-serif" font-size="11" lengthAdjust="spacing" textLength="301" x="499" y="263.4502">void activateHauntedCityJoker(Player,ArrayList&lt;HauntedCity&gt;)</text><ellipse cx="490" cy="272.8672" fill="#84BE84" rx="3" ry="3" style="stroke:#038048;stroke-width:1.0;"/><text fill="#000000" font-family="sans-serif" font-size="11" lengthAdjust="spacing" textLength="149" x="499" y="277.2861">boolean CityIsComplete(Player)</text><!--MD5=[5dfb5a2ba672db5f9097f31c9f6a061d]
class fr.unice.polytech.citadelle.game_engine.RoundManager--><rect codeLine="25" fill="#FEFECE" filter="url(#fc2dmmwufyckp)" height="393.8984" id="fr.unice.polytech.citadelle.game_engine.RoundManager" style="stroke:#A80036;stroke-width:1.5;" width="642" x="32" y="344"/><ellipse cx="306.25" cy="360" fill="#ADD1B2" rx="11" ry="11" style="stroke:#A80036;stroke-width:1.0;"/><path d="M308.25,356.5 Q308.4531,356 308.6875,355.75 Q308.9219,355.5 309.1875,355.5 Q309.6563,355.5 309.9531,355.7813 Q310.25,356.0625 310.25,356.7188 L310.25,358.2813 Q310.25,358.9375 309.9688,359.2188 Q309.6875,359.5 309.25,359.5 Q308.8594,359.5 308.6094,359.3281 Q308.3594,359.1563 308.25,358.7031 Q308.2031,358.3906 308.0313,358.2188 Q307.7188,357.8906 307.1563,357.7031 Q306.5938,357.5 306.0313,357.5 Q305.3281,357.5 304.7344,357.7813 Q304.1563,358.0625 303.7031,358.6875 Q303.25,359.3125 303.25,360.1719 L303.25,361.0938 Q303.25,362.125 304.0938,362.8125 Q304.9375,363.5 306.4375,363.5 Q307.3281,363.5 307.9531,363.2969 Q308.3125,363.1875 308.7188,362.8281 Q308.9844,362.625 309.125,362.5625 Q309.2656,362.5 309.4375,362.5 Q309.7656,362.5 310,362.7656 Q310.25,363.0156 310.25,363.375 Q310.25,363.7188 309.9063,364.125 Q309.4063,364.7188 308.6094,365.0469 Q307.5625,365.5 306.2813,365.5 Q304.7813,365.5 303.5781,364.9063 Q302.6094,364.4375 301.9219,363.4219 Q301.25,362.4063 301.25,361.2031 L301.25,360.1094 Q301.25,358.8594 301.8438,357.7656 Q302.4531,356.6719 303.5,356.0938 Q304.5625,355.5 305.75,355.5 Q306.4688,355.5 307.0938,355.75 Q307.7188,356 308.25,356.5 Z " fill="#000000"/><text fill="#000000" font-family="sans-serif" font-size="12" lengthAdjust="spacing" textLength="85" x="326.75" y="364.9102">RoundManager</text><line style="stroke:#A80036;stroke-width:1.5;" x1="33" x2="673" y1="376" y2="376"/><rect fill="none" height="6" style="stroke:#C82930;stroke-width:1.0;" width="6" x="40" y="384"/><text fill="#000000" font-family="sans-serif" font-size="11" lengthAdjust="spacing" textLength="183" x="52" y="391.4189">ArrayList&lt;Behaviour&gt; listOfBehaviour</text><rect fill="none" height="6" style="stroke:#C82930;stroke-width:1.0;" width="6" x="40" y="397.8359"/><text fill="#000000" font-family="sans-serif" font-size="11" lengthAdjust="spacing" textLength="199" x="52" y="405.2549">ArrayList&lt;Character&gt; listOfAllCharacters</text><rect fill="none" height="6" style="stroke:#C82930;stroke-width:1.0;" width="6" x="40" y="411.6719"/><text fill="#000000" font-family="sans-serif" font-size="11" lengthAdjust="spacing" textLength="332" x="52" y="419.0908">LinkedHashMap&lt;Character,Optional&lt;Behaviour&gt;&gt; hashOfCharacters</text><rect fill="none" height="6" style="stroke:#C82930;stroke-width:1.0;" width="6" x="40" y="425.5078"/><text fill="#000000" font-family="sans-serif" font-size="11" lengthAdjust="spacing" textLength="60" x="52" y="432.9268">Board board</text><rect fill="none" height="6" style="stroke:#C82930;stroke-width:1.0;" width="6" x="40" y="439.3438"/><text fill="#000000" font-family="sans-serif" font-size="11" lengthAdjust="spacing" textLength="78" x="52" y="446.7627">Referee referee</text><line style="stroke:#A80036;stroke-width:1.5;" x1="33" x2="673" y1="453.1797" y2="453.1797"/><ellipse cx="43" cy="464.1797" fill="#84BE84" rx="3" ry="3" style="stroke:#038048;stroke-width:1.0;"/><text fill="#000000" font-family="sans-serif" font-size="11" lengthAdjust="spacing" textLength="616" x="52" y="468.5986">«Create» RoundManager(ArrayList&lt;Character&gt;,ArrayList&lt;Behaviour&gt;,LinkedHashMap&lt;Character,Optional&lt;Behaviour&gt;&gt;,Board)</text><ellipse cx="43" cy="478.0156" fill="#84BE84" rx="3" ry="3" style="stroke:#038048;stroke-width:1.0;"/><text fill="#000000" font-family="sans-serif" font-size="11" lengthAdjust="spacing" textLength="170" x="52" y="482.4346">ArrayList&lt;Behaviour&gt; runRounds()</text><ellipse cx="43" cy="491.8516" fill="#84BE84" rx="3" ry="3" style="stroke:#038048;stroke-width:1.0;"/><text fill="#000000" font-family="sans-serif" font-size="11" lengthAdjust="spacing" textLength="253" x="52" y="496.2705">ArrayList&lt;City&gt; getTheListOfCity(ArrayList&lt;Player&gt;)</text><ellipse cx="43" cy="505.6875" fill="#84BE84" rx="3" ry="3" style="stroke:#038048;stroke-width:1.0;"/><text fill="#000000" font-family="sans-serif" font-size="11" lengthAdjust="spacing" textLength="112" x="52" y="510.1064">void setupCharacters()</text><ellipse cx="43" cy="519.5234" fill="#84BE84" rx="3" ry="3" style="stroke:#038048;stroke-width:1.0;"/><text fill="#000000" font-family="sans-serif" font-size="11" lengthAdjust="spacing" textLength="270" x="52" y="523.9424">void chooseACharacterCard(Behaviour,DeckCharacter)</text><ellipse cx="43" cy="533.3594" fill="#84BE84" rx="3" ry="3" style="stroke:#038048;stroke-width:1.0;"/><text fill="#000000" font-family="sans-serif" font-size="11" lengthAdjust="spacing" textLength="267" x="52" y="537.7783">Character chooseCharacter(Behaviour,DeckCharacter)</text><ellipse cx="43" cy="547.1953" fill="#84BE84" rx="3" ry="3" style="stroke:#038048;stroke-width:1.0;"/><text fill="#000000" font-family="sans-serif" font-size="11" lengthAdjust="spacing" textLength="145" x="52" y="551.6143">int isThereAFamily(Behaviour)</text><ellipse cx="43" cy="561.0313" fill="#84BE84" rx="3" ry="3" style="stroke:#038048;stroke-width:1.0;"/><text fill="#000000" font-family="sans-serif" font-size="11" lengthAdjust="spacing" textLength="238" x="52" y="565.4502">ArrayList&lt;Behaviour&gt; askEachCharacterToPlay()</text><ellipse cx="43" cy="574.8672" fill="#84BE84" rx="3" ry="3" style="stroke:#038048;stroke-width:1.0;"/><text fill="#000000" font-family="sans-serif" font-size="11" lengthAdjust="spacing" textLength="170" x="52" y="579.2861">void actionOfBehaviour(Behaviour)</text><ellipse cx="43" cy="588.7031" fill="#84BE84" rx="3" ry="3" style="stroke:#038048;stroke-width:1.0;"/><text fill="#000000" font-family="sans-serif" font-size="11" lengthAdjust="spacing" textLength="261" x="52" y="593.1221">void cityVerification(Behaviour,ArrayList&lt;Behaviour&gt;)</text><ellipse cx="43" cy="602.5391" fill="#84BE84" rx="3" ry="3" style="stroke:#038048;stroke-width:1.0;"/><text fill="#000000" font-family="sans-serif" font-size="11" lengthAdjust="spacing" textLength="284" x="52" y="606.958">void updateLeaderboard(Behaviour,ArrayList&lt;Behaviour&gt;)</text><ellipse cx="43" cy="616.375" fill="#84BE84" rx="3" ry="3" style="stroke:#038048;stroke-width:1.0;"/><text fill="#000000" font-family="sans-serif" font-size="11" lengthAdjust="spacing" textLength="142" x="52" y="620.7939">void updateListOfBehaviour()</text><ellipse cx="43" cy="630.2109" fill="#84BE84" rx="3" ry="3" style="stroke:#038048;stroke-width:1.0;"/><text fill="#000000" font-family="sans-serif" font-size="11" lengthAdjust="spacing" textLength="167" x="52" y="634.6299">int findKing(ArrayList&lt;Behaviour&gt;)</text><ellipse cx="43" cy="644.0469" fill="#84BE84" rx="3" ry="3" style="stroke:#038048;stroke-width:1.0;"/><text fill="#000000" font-family="sans-serif" font-size="11" lengthAdjust="spacing" textLength="322" x="52" y="648.4658">ArrayList&lt;Behaviour&gt; orderListOfPlayer(ArrayList&lt;Behaviour&gt;,int)</text><ellipse cx="43" cy="657.8828" fill="#84BE84" rx="3" ry="3" style="stroke:#038048;stroke-width:1.0;"/><text fill="#000000" font-family="sans-serif" font-size="11" lengthAdjust="spacing" textLength="73" x="52" y="662.3018">void reviveAll()</text><ellipse cx="43" cy="671.7188" fill="#84BE84" rx="3" ry="3" style="stroke:#038048;stroke-width:1.0;"/><text fill="#000000" font-family="sans-serif" font-size="11" lengthAdjust="spacing" textLength="178" x="52" y="676.1377">ArrayList&lt;Player&gt; getListOfPlayers()</text><ellipse cx="43" cy="685.5547" fill="#84BE84" rx="3" ry="3" style="stroke:#038048;stroke-width:1.0;"/><text fill="#000000" font-family="sans-serif" font-size="11" lengthAdjust="spacing" textLength="210" x="52" y="689.9736">ArrayList&lt;Behaviour&gt; getListOfBehaviour()</text><ellipse cx="43" cy="699.3906" fill="#84BE84" rx="3" ry="3" style="stroke:#038048;stroke-width:1.0;"/><text fill="#000000" font-family="sans-serif" font-size="11" lengthAdjust="spacing" textLength="226" x="52" y="703.8096">ArrayList&lt;Character&gt; getListOfAllCharacters()</text><ellipse cx="43" cy="713.2266" fill="#84BE84" rx="3" ry="3" style="stroke:#038048;stroke-width:1.0;"/><text fill="#000000" font-family="sans-serif" font-size="11" lengthAdjust="spacing" textLength="356" x="52" y="717.6455">LinkedHashMap&lt;Character,Optional&lt;Behaviour&gt;&gt; getHashOfCharacters()</text><ellipse cx="43" cy="727.0625" fill="#84BE84" rx="3" ry="3" style="stroke:#038048;stroke-width:1.0;"/><text fill="#000000" font-family="sans-serif" font-size="11" lengthAdjust="spacing" textLength="84" x="52" y="731.4814">Board getBoard()</text><!--MD5=[f5299b8f491ad888abd0309713ed8a60]
class fr.unice.polytech.citadelle.game_engine.Initializer--><rect codeLine="52" fill="#FEFECE" filter="url(#fc2dmmwufyckp)" height="297.0469" id="fr.unice.polytech.citadelle.game_engine.Initializer" style="stroke:#A80036;stroke-width:1.5;" width="515" x="709.5" y="392.5"/><ellipse cx="938.75" cy="408.5" fill="#ADD1B2" rx="11" ry="11" style="stroke:#A80036;stroke-width:1.0;"/><path d="M940.75,405 Q940.9531,404.5 941.1875,404.25 Q941.4219,404 941.6875,404 Q942.1563,404 942.4531,404.2813 Q942.75,404.5625 942.75,405.2188 L942.75,406.7813 Q942.75,407.4375 942.4688,407.7188 Q942.1875,408 941.75,408 Q941.3594,408 941.1094,407.8281 Q940.8594,407.6563 940.75,407.2031 Q940.7031,406.8906 940.5313,406.7188 Q940.2188,406.3906 939.6563,406.2031 Q939.0938,406 938.5313,406 Q937.8281,406 937.2344,406.2813 Q936.6563,406.5625 936.2031,407.1875 Q935.75,407.8125 935.75,408.6719 L935.75,409.5938 Q935.75,410.625 936.5938,411.3125 Q937.4375,412 938.9375,412 Q939.8281,412 940.4531,411.7969 Q940.8125,411.6875 941.2188,411.3281 Q941.4844,411.125 941.625,411.0625 Q941.7656,411 941.9375,411 Q942.2656,411 942.5,411.2656 Q942.75,411.5156 942.75,411.875 Q942.75,412.2188 942.4063,412.625 Q941.9063,413.2188 941.1094,413.5469 Q940.0625,414 938.7813,414 Q937.2813,414 936.0781,413.4063 Q935.1094,412.9375 934.4219,411.9219 Q933.75,410.9063 933.75,409.7031 L933.75,408.6094 Q933.75,407.3594 934.3438,406.2656 Q934.9531,405.1719 936,404.5938 Q937.0625,404 938.25,404 Q938.9688,404 939.5938,404.25 Q940.2188,404.5 940.75,405 Z " fill="#000000"/><text fill="#000000" font-family="sans-serif" font-size="12" lengthAdjust="spacing" textLength="48" x="959.25" y="413.4102">Initializer</text><line style="stroke:#A80036;stroke-width:1.5;" x1="710.5" x2="1223.5" y1="424.5" y2="424.5"/><ellipse cx="720.5" cy="435.5" rx="3" ry="3" style="stroke:#038048;stroke-width:1.0;fill:none;"/><text fill="#000000" font-family="sans-serif" font-size="11" lengthAdjust="spacing" text-decoration="underline" textLength="102" x="729.5" y="439.9189">int ASSASSIN_INDEX</text><ellipse cx="720.5" cy="449.3359" rx="3" ry="3" style="stroke:#038048;stroke-width:1.0;fill:none;"/><text fill="#000000" font-family="sans-serif" font-size="11" lengthAdjust="spacing" text-decoration="underline" textLength="76" x="729.5" y="453.7549">int THIEF_INDEX</text><ellipse cx="720.5" cy="463.1719" rx="3" ry="3" style="stroke:#038048;stroke-width:1.0;fill:none;"/><text fill="#000000" font-family="sans-serif" font-size="11" lengthAdjust="spacing" text-decoration="underline" textLength="99" x="729.5" y="467.5908">int MAGICIAN_INDEX</text><ellipse cx="720.5" cy="477.0078" rx="3" ry="3" style="stroke:#038048;stroke-width:1.0;fill:none;"/><text fill="#000000" font-family="sans-serif" font-size="11" lengthAdjust="spacing" text-decoration="underline" textLength="73" x="729.5" y="481.4268">int KING_INDEX</text><ellipse cx="720.5" cy="490.8438" rx="3" ry="3" style="stroke:#038048;stroke-width:1.0;fill:none;"/><text fill="#000000" font-family="sans-serif" font-size="11" lengthAdjust="spacing" text-decoration="underline" textLength="86" x="729.5" y="495.2627">int BISHOP_INDEX</text><ellipse cx="720.5" cy="504.6797" rx="3" ry="3" style="stroke:#038048;stroke-width:1.0;fill:none;"/><text fill="#000000" font-family="sans-serif" font-size="11" lengthAdjust="spacing" text-decoration="underline" textLength="105" x="729.5" y="509.0986">int MERCHANT_INDEX</text><ellipse cx="720.5" cy="518.5156" rx="3" ry="3" style="stroke:#038048;stroke-width:1.0;fill:none;"/><text fill="#000000" font-family="sans-serif" font-size="11" lengthAdjust="spacing" text-decoration="underline" textLength="105" x="729.5" y="522.9346">int ARCHITECT_INDEX</text><ellipse cx="720.5" cy="532.3516" rx="3" ry="3" style="stroke:#038048;stroke-width:1.0;fill:none;"/><text fill="#000000" font-family="sans-serif" font-size="11" lengthAdjust="spacing" text-decoration="underline" textLength="102" x="729.5" y="536.7705">int WARLORD_INDEX</text><ellipse cx="720.5" cy="546.1875" rx="3" ry="3" style="stroke:#038048;stroke-width:1.0;fill:none;"/><text fill="#000000" font-family="sans-serif" font-size="11" lengthAdjust="spacing" text-decoration="underline" textLength="123" x="729.5" y="550.6064">int NUMBER_OF_PLAYER</text><line style="stroke:#A80036;stroke-width:1.5;" x1="710.5" x2="1223.5" y1="557.0234" y2="557.0234"/><ellipse cx="720.5" cy="568.0234" fill="#84BE84" rx="3" ry="3" style="stroke:#038048;stroke-width:1.0;"/><text fill="#000000" font-family="sans-serif" font-size="11" lengthAdjust="spacing" text-decoration="underline" textLength="488" x="729.5" y="572.4424">void resetHashOfCharacter(LinkedHashMap&lt;Character,Optional&lt;Behaviour&gt;&gt;,ArrayList&lt;Character&gt;)</text><ellipse cx="720.5" cy="581.8594" fill="#84BE84" rx="3" ry="3" style="stroke:#038048;stroke-width:1.0;"/><text fill="#000000" font-family="sans-serif" font-size="11" lengthAdjust="spacing" text-decoration="underline" textLength="489" x="729.5" y="586.2783">void initTheHashOfViewCharacters(LinkedHashMap&lt;Player,Optional&lt;Character&gt;&gt;,ArrayList&lt;Player&gt;)</text><ellipse cx="720.5" cy="595.6953" fill="#84BE84" rx="3" ry="3" style="stroke:#038048;stroke-width:1.0;"/><text fill="#000000" font-family="sans-serif" font-size="11" lengthAdjust="spacing" text-decoration="underline" textLength="236" x="729.5" y="600.1143">ArrayList&lt;Character&gt; createListOfAllCharacter()</text><ellipse cx="720.5" cy="609.5313" fill="#84BE84" rx="3" ry="3" style="stroke:#038048;stroke-width:1.0;"/><text fill="#000000" font-family="sans-serif" font-size="11" lengthAdjust="spacing" text-decoration="underline" textLength="255" x="729.5" y="613.9502">ArrayList&lt;Behaviour&gt; createListOfBehaviour(Board)</text><ellipse cx="720.5" cy="623.3672" fill="#84BE84" rx="3" ry="3" style="stroke:#038048;stroke-width:1.0;"/><text fill="#000000" font-family="sans-serif" font-size="11" lengthAdjust="spacing" text-decoration="underline" textLength="205" x="729.5" y="627.7861">Board createBoard(ArrayList&lt;Character&gt;)</text><ellipse cx="720.5" cy="637.2031" fill="#84BE84" rx="3" ry="3" style="stroke:#038048;stroke-width:1.0;"/><text fill="#000000" font-family="sans-serif" font-size="11" lengthAdjust="spacing" text-decoration="underline" textLength="437" x="729.5" y="641.6221">void fillHashOfCharacter(HashMap&lt;Character,Optional&lt;Behaviour&gt;&gt;,Character,Behaviour)</text><ellipse cx="720.5" cy="651.0391" fill="#84BE84" rx="3" ry="3" style="stroke:#038048;stroke-width:1.0;"/><text fill="#000000" font-family="sans-serif" font-size="11" lengthAdjust="spacing" text-decoration="underline" textLength="158" x="729.5" y="655.458">void initDeckDistrict(DeckDistrict)</text><ellipse cx="720.5" cy="664.875" fill="#84BE84" rx="3" ry="3" style="stroke:#038048;stroke-width:1.0;"/><text fill="#000000" font-family="sans-serif" font-size="11" lengthAdjust="spacing" text-decoration="underline" textLength="296" x="729.5" y="669.2939">void initDeckCharacter(DeckCharacter,ArrayList&lt;Character&gt;)</text><ellipse cx="720.5" cy="678.7109" fill="#84BE84" rx="3" ry="3" style="stroke:#038048;stroke-width:1.0;"/><text fill="#000000" font-family="sans-serif" font-size="11" lengthAdjust="spacing" text-decoration="underline" textLength="132" x="729.5" y="683.1299">void initPlayerCards(Board)</text><!--MD5=[23dc21d4d72e60176b531b2df0836fa5]
link fr.unice.polytech.citadelle.game_engine.Controller to fr.unice.polytech.citadelle.game_engine.Referee--><!--MD5=[2a88645640d4d1837a82ab96c1f23408]
link fr.unice.polytech.citadelle.game_engine.Controller to fr.unice.polytech.citadelle.game_engine.RoundManager--><!--MD5=[4acdc3992db2808df16a7bf45a8be493]
link fr.unice.polytech.citadelle.game_engine.RoundManager to fr.unice.polytech.citadelle.game_engine.Initializer--><!--MD5=[ccbfc9732149bfd77ba9decb68cca8fd]
@startuml
class fr.unice.polytech.citadelle.game_engine.Controller {
- RoundManager roundManager
- Referee referee
+ <<Create>> Controller()
+ void initGame()
+ void runGame()
+ void end(ArrayList<Behaviour>)
}
class fr.unice.polytech.citadelle.game_engine.Referee {
+ {static} int BONUS_FIRST
+ {static} int BONUS_END
- Board board
+ <<Create>> Referee(Board)
+ void updatePlayerWithCityScore(Player)
+ void addBonusForPlayers(ArrayList<Behaviour>)
+ int cityDistrictScore(Player)
+ boolean hasFiveDistrictColors(Player)
+ void getWinner()
- ArrayList<BonusDistrict> isThereBonusDistrictInCity(Player)
- void activateBonus(Player,ArrayList<BonusDistrict>)
+ ArrayList<HauntedCity> isThereHauntedCityJokerInCity(Player)
+ void activateHauntedCityJoker(Player,ArrayList<HauntedCity>)
+ boolean CityIsComplete(Player)
}
class fr.unice.polytech.citadelle.game_engine.RoundManager {
- ArrayList<Behaviour> listOfBehaviour
- ArrayList<Character> listOfAllCharacters
- LinkedHashMap<Character,Optional<Behaviour>> hashOfCharacters
- Board board
- Referee referee
+ <<Create>> RoundManager(ArrayList<Character>,ArrayList<Behaviour>,LinkedHashMap<Character,Optional<Behaviour>>,Board)
+ ArrayList<Behaviour> runRounds()
+ ArrayList<City> getTheListOfCity(ArrayList<Player>)
+ void setupCharacters()
+ void chooseACharacterCard(Behaviour,DeckCharacter)
+ Character chooseCharacter(Behaviour,DeckCharacter)
+ int isThereAFamily(Behaviour)
+ ArrayList<Behaviour> askEachCharacterToPlay()
+ void actionOfBehaviour(Behaviour)
+ void cityVerification(Behaviour,ArrayList<Behaviour>)
+ void updateLeaderboard(Behaviour,ArrayList<Behaviour>)
+ void updateListOfBehaviour()
+ int findKing(ArrayList<Behaviour>)
+ ArrayList<Behaviour> orderListOfPlayer(ArrayList<Behaviour>,int)
+ void reviveAll()
+ ArrayList<Player> getListOfPlayers()
+ ArrayList<Behaviour> getListOfBehaviour()
+ ArrayList<Character> getListOfAllCharacters()
+ LinkedHashMap<Character,Optional<Behaviour>> getHashOfCharacters()
+ Board getBoard()
}
class fr.unice.polytech.citadelle.game_engine.Initializer {
+ {static} int ASSASSIN_INDEX
+ {static} int THIEF_INDEX
+ {static} int MAGICIAN_INDEX
+ {static} int KING_INDEX
+ {static} int BISHOP_INDEX
+ {static} int MERCHANT_INDEX
+ {static} int ARCHITECT_INDEX
+ {static} int WARLORD_INDEX
+ {static} int NUMBER_OF_PLAYER
+ {static} void resetHashOfCharacter(LinkedHashMap<Character,Optional<Behaviour>>,ArrayList<Character>)
+ {static} void initTheHashOfViewCharacters(LinkedHashMap<Player,Optional<Character>>,ArrayList<Player>)
+ {static} ArrayList<Character> createListOfAllCharacter()
+ {static} ArrayList<Behaviour> createListOfBehaviour(Board)
+ {static} Board createBoard(ArrayList<Character>)
+ {static} void fillHashOfCharacter(HashMap<Character,Optional<Behaviour>>,Character,Behaviour)
+ {static} void initDeckDistrict(DeckDistrict)
+ {static} void initDeckCharacter(DeckCharacter,ArrayList<Character>)
+ {static} void initPlayerCards(Board)
}
@enduml

PlantUML version 1.2021.16(Wed Dec 08 18:25:22 CET 2021)
(GPL source distribution)
Java Runtime: OpenJDK Runtime Environment
JVM: OpenJDK 64-Bit Server VM
Default Encoding: Cp1252
Language: fr
Country: FR
--></g></svg>