<?xml version="1.0" encoding="UTF-8" standalone="no"?><svg xmlns="http://www.w3.org/2000/svg" xmlns:xlink="http://www.w3.org/1999/xlink" contentScriptType="application/ecmascript" contentStyleType="text/css" height="968px" preserveAspectRatio="none" style="width:722px;height:968px;background:#FFFFFF;" version="1.1" viewBox="0 0 722 968" width="722px" zoomAndPan="magnify"><defs><filter height="300%" id="f1rpjy5kvr94il" width="300%" x="-1" y="-1"><feGaussianBlur result="blurOut" stdDeviation="2.0"/><feColorMatrix in="blurOut" result="blurOut2" type="matrix" values="0 0 0 0 0 0 0 0 0 0 0 0 0 0 0 0 0 0 .4 0"/><feOffset dx="4.0" dy="4.0" in="blurOut2" result="blurOut3"/><feBlend in="SourceGraphic" in2="blurOut3" mode="normal"/></filter></defs><g><!--MD5=[4b48a0e75e9bd71ade70ffe04e529076]
cluster fr.unice.polytech.citadelle.game_interactor.game_behaviour--><polygon fill="#FFFFFF" filter="url(#f1rpjy5kvr94il)" points="16,6,445,6,452,29.6094,705,29.6094,705,961,16,961,16,6" style="stroke:#000000;stroke-width:1.5;"/><line style="stroke:#000000;stroke-width:1.5;" x1="16" x2="452" y1="29.6094" y2="29.6094"/><text fill="#000000" font-family="sans-serif" font-size="14" font-weight="bold" lengthAdjust="spacing" textLength="423" x="20" y="22.5332">fr.unice.polytech.citadelle.game_interactor.game_behaviour</text><!--MD5=[236ed6975eb10f251913582eed0fef5b]
class fr.unice.polytech.citadelle.game_interactor.game_behaviour.Investor--><rect codeLine="1" fill="#FEFECE" filter="url(#f1rpjy5kvr94il)" height="131.0156" id="fr.unice.polytech.citadelle.game_interactor.game_behaviour.Investor" style="stroke:#A80036;stroke-width:1.5;" width="292" x="32" y="786.5"/><ellipse cx="152.25" cy="802.5" fill="#ADD1B2" rx="11" ry="11" style="stroke:#A80036;stroke-width:1.0;"/><path d="M154.25,799 Q154.4531,798.5 154.6875,798.25 Q154.9219,798 155.1875,798 Q155.6563,798 155.9531,798.2813 Q156.25,798.5625 156.25,799.2188 L156.25,800.7813 Q156.25,801.4375 155.9688,801.7188 Q155.6875,802 155.25,802 Q154.8594,802 154.6094,801.8281 Q154.3594,801.6563 154.25,801.2031 Q154.2031,800.8906 154.0313,800.7188 Q153.7188,800.3906 153.1563,800.2031 Q152.5938,800 152.0313,800 Q151.3281,800 150.7344,800.2813 Q150.1563,800.5625 149.7031,801.1875 Q149.25,801.8125 149.25,802.6719 L149.25,803.5938 Q149.25,804.625 150.0938,805.3125 Q150.9375,806 152.4375,806 Q153.3281,806 153.9531,805.7969 Q154.3125,805.6875 154.7188,805.3281 Q154.9844,805.125 155.125,805.0625 Q155.2656,805 155.4375,805 Q155.7656,805 156,805.2656 Q156.25,805.5156 156.25,805.875 Q156.25,806.2188 155.9063,806.625 Q155.4063,807.2188 154.6094,807.5469 Q153.5625,808 152.2813,808 Q150.7813,808 149.5781,807.4063 Q148.6094,806.9375 147.9219,805.9219 Q147.25,804.9063 147.25,803.7031 L147.25,802.6094 Q147.25,801.3594 147.8438,800.2656 Q148.4531,799.1719 149.5,798.5938 Q150.5625,798 151.75,798 Q152.4688,798 153.0938,798.25 Q153.7188,798.5 154.25,799 Z " fill="#000000"/><text fill="#000000" font-family="sans-serif" font-size="12" lengthAdjust="spacing" textLength="43" x="172.75" y="807.4102">Investor</text><line style="stroke:#A80036;stroke-width:1.5;" x1="33" x2="323" y1="818.5" y2="818.5"/><line style="stroke:#A80036;stroke-width:1.5;" x1="33" x2="323" y1="826.5" y2="826.5"/><ellipse cx="43" cy="837.5" fill="#84BE84" rx="3" ry="3" style="stroke:#038048;stroke-width:1.0;"/><text fill="#000000" font-family="sans-serif" font-size="11" lengthAdjust="spacing" textLength="156" x="52" y="841.9189">«Create» Investor(Player,Board)</text><ellipse cx="43" cy="851.3359" fill="#84BE84" rx="3" ry="3" style="stroke:#038048;stroke-width:1.0;"/><text fill="#000000" font-family="sans-serif" font-size="11" lengthAdjust="spacing" textLength="266" x="52" y="855.7549">void executeSpell(ArrayList&lt;SpellDistrict&gt;,DeckDistrict)</text><ellipse cx="43" cy="865.1719" fill="#84BE84" rx="3" ry="3" style="stroke:#038048;stroke-width:1.0;"/><text fill="#000000" font-family="sans-serif" font-size="11" lengthAdjust="spacing" textLength="112" x="52" y="869.5908">void normalBehaviour()</text><ellipse cx="43" cy="879.0078" fill="#84BE84" rx="3" ry="3" style="stroke:#038048;stroke-width:1.0;"/><text fill="#000000" font-family="sans-serif" font-size="11" lengthAdjust="spacing" textLength="126" x="52" y="883.4268">void endGameBehaviour()</text><ellipse cx="43" cy="892.8438" fill="#84BE84" rx="3" ry="3" style="stroke:#038048;stroke-width:1.0;"/><text fill="#000000" font-family="sans-serif" font-size="11" lengthAdjust="spacing" textLength="119" x="52" y="897.2627">void lastTurnBehaviour()</text><ellipse cx="43" cy="906.6797" fill="#84BE84" rx="3" ry="3" style="stroke:#038048;stroke-width:1.0;"/><text fill="#000000" font-family="sans-serif" font-size="11" lengthAdjust="spacing" textLength="244" x="52" y="911.0986">District chooseBetweenTwoCards(District,District)</text><!--MD5=[59596ae452279accfd7b315a4fd0ae43]
class fr.unice.polytech.citadelle.game_interactor.game_behaviour.Behaviour--><rect codeLine="9" fill="#FEFECE" filter="url(#f1rpjy5kvr94il)" height="656.7813" id="fr.unice.polytech.citadelle.game_interactor.game_behaviour.Behaviour" style="stroke:#A80036;stroke-width:1.5;" width="470" x="125" y="42"/><ellipse cx="328.25" cy="58" fill="#ADD1B2" rx="11" ry="11" style="stroke:#A80036;stroke-width:1.0;"/><path d="M330.25,54.5 Q330.4531,54 330.6875,53.75 Q330.9219,53.5 331.1875,53.5 Q331.6563,53.5 331.9531,53.7813 Q332.25,54.0625 332.25,54.7188 L332.25,56.2813 Q332.25,56.9375 331.9688,57.2188 Q331.6875,57.5 331.25,57.5 Q330.8594,57.5 330.6094,57.3281 Q330.3594,57.1563 330.25,56.7031 Q330.2031,56.3906 330.0313,56.2188 Q329.7188,55.8906 329.1563,55.7031 Q328.5938,55.5 328.0313,55.5 Q327.3281,55.5 326.7344,55.7813 Q326.1563,56.0625 325.7031,56.6875 Q325.25,57.3125 325.25,58.1719 L325.25,59.0938 Q325.25,60.125 326.0938,60.8125 Q326.9375,61.5 328.4375,61.5 Q329.3281,61.5 329.9531,61.2969 Q330.3125,61.1875 330.7188,60.8281 Q330.9844,60.625 331.125,60.5625 Q331.2656,60.5 331.4375,60.5 Q331.7656,60.5 332,60.7656 Q332.25,61.0156 332.25,61.375 Q332.25,61.7188 331.9063,62.125 Q331.4063,62.7188 330.6094,63.0469 Q329.5625,63.5 328.2813,63.5 Q326.7813,63.5 325.5781,62.9063 Q324.6094,62.4375 323.9219,61.4219 Q323.25,60.4063 323.25,59.2031 L323.25,58.1094 Q323.25,56.8594 323.8438,55.7656 Q324.4531,54.6719 325.5,54.0938 Q326.5625,53.5 327.75,53.5 Q328.4688,53.5 329.0938,53.75 Q329.7188,54 330.25,54.5 Z " fill="#000000"/><text fill="#000000" font-family="sans-serif" font-size="12" lengthAdjust="spacing" textLength="55" x="348.75" y="62.9102">Behaviour</text><line style="stroke:#A80036;stroke-width:1.5;" x1="126" x2="594" y1="74" y2="74"/><polygon fill="none" points="136,80,140,84,136,88,132,84" style="stroke:#B38D22;stroke-width:1.0;"/><text fill="#000000" font-family="sans-serif" font-size="11" lengthAdjust="spacing" textLength="63" x="145" y="89.4189">Player player</text><polygon fill="none" points="136,93.8359,140,97.8359,136,101.8359,132,97.8359" style="stroke:#B38D22;stroke-width:1.0;"/><text fill="#000000" font-family="sans-serif" font-size="11" lengthAdjust="spacing" textLength="110" x="145" y="103.2549">int numberOfCharacter</text><polygon fill="none" points="136,108.6719,132,114.6719,140,114.6719" style="stroke:#1963A0;stroke-width:1.0;"/><text fill="#000000" font-family="sans-serif" font-size="11" lengthAdjust="spacing" textLength="84" x="145" y="117.0908">Strategy strategy</text><polygon fill="none" points="136,122.5078,132,128.5078,140,128.5078" style="stroke:#1963A0;stroke-width:1.0;"/><text fill="#000000" font-family="sans-serif" font-size="11" lengthAdjust="spacing" textLength="119" x="145" y="130.9268">CityManagement cityMan</text><polygon fill="none" points="136,136.3438,132,142.3438,140,142.3438" style="stroke:#1963A0;stroke-width:1.0;"/><text fill="#000000" font-family="sans-serif" font-size="11" lengthAdjust="spacing" textLength="89" x="145" y="144.7627">Executor executor</text><polygon fill="none" points="136,150.1797,132,156.1797,140,156.1797" style="stroke:#1963A0;stroke-width:1.0;"/><text fill="#000000" font-family="sans-serif" font-size="11" lengthAdjust="spacing" textLength="147" x="145" y="158.5986">PhaseManager phaseManager</text><polygon fill="none" points="136,164.0156,132,170.0156,140,170.0156" style="stroke:#1963A0;stroke-width:1.0;"/><text fill="#000000" font-family="sans-serif" font-size="11" lengthAdjust="spacing" textLength="60" x="145" y="172.4346">Board board</text><polygon fill="none" points="136,176.8516,140,180.8516,136,184.8516,132,180.8516" style="stroke:#B38D22;stroke-width:1.0;"/><text fill="#000000" font-family="sans-serif" font-size="11" lengthAdjust="spacing" text-decoration="underline" textLength="77" x="145" y="186.2705">int ZERO_CARD</text><polygon fill="none" points="136,190.6875,140,194.6875,136,198.6875,132,194.6875" style="stroke:#B38D22;stroke-width:1.0;"/><text fill="#000000" font-family="sans-serif" font-size="11" lengthAdjust="spacing" text-decoration="underline" textLength="70" x="145" y="200.1064">int ONE_CARD</text><polygon fill="none" points="136,204.5234,140,208.5234,136,212.5234,132,208.5234" style="stroke:#B38D22;stroke-width:1.0;"/><text fill="#000000" font-family="sans-serif" font-size="11" lengthAdjust="spacing" text-decoration="underline" textLength="73" x="145" y="213.9424">int TWO_CARD</text><line style="stroke:#A80036;stroke-width:1.5;" x1="126" x2="594" y1="220.3594" y2="220.3594"/><ellipse cx="136" cy="231.3594" fill="#84BE84" rx="3" ry="3" style="stroke:#038048;stroke-width:1.0;"/><text fill="#000000" font-family="sans-serif" font-size="11" lengthAdjust="spacing" textLength="166" x="145" y="235.7783">«Create» Behaviour(Player,Board)</text><ellipse cx="136" cy="245.1953" fill="#84BE84" rx="3" ry="3" style="stroke:#038048;stroke-width:1.0;"/><text fill="#000000" font-family="sans-serif" font-size="11" lengthAdjust="spacing" textLength="245" x="145" y="249.6143">District selectTheHigherDistrict(ArrayList&lt;District&gt;)</text><ellipse cx="136" cy="259.0313" fill="#84BE84" rx="3" ry="3" style="stroke:#038048;stroke-width:1.0;"/><text fill="#000000" font-family="sans-serif" font-size="11" lengthAdjust="spacing" textLength="246" x="145" y="263.4502">District selectTheLowerDistrict(ArrayList&lt;District&gt;)</text><ellipse cx="136" cy="272.8672" fill="#84BE84" rx="3" ry="3" style="stroke:#038048;stroke-width:1.0;"/><text fill="#000000" font-family="sans-serif" font-size="11" lengthAdjust="spacing" textLength="318" x="145" y="277.2861">Character play(LinkedHashMap&lt;Character,Optional&lt;Behaviour&gt;&gt;)</text><rect fill="#F24D5C" height="6" style="stroke:#C82930;stroke-width:1.0;" width="6" x="133" y="283.7031"/><text fill="#000000" font-family="sans-serif" font-size="11" lengthAdjust="spacing" textLength="444" x="145" y="291.1221">void executeSpellOfCharacter(Behaviour,LinkedHashMap&lt;Character,Optional&lt;Behaviour&gt;&gt;)</text><rect fill="#F24D5C" height="6" style="stroke:#C82930;stroke-width:1.0;" width="6" x="133" y="297.5391"/><text fill="#000000" font-family="sans-serif" font-size="11" lengthAdjust="spacing" textLength="204" x="145" y="304.958">void executeSpellOfPurpleDistricts(Player)</text><ellipse cx="136" cy="314.375" fill="#84BE84" rx="3" ry="3" style="stroke:#038048;stroke-width:1.0;"/><text fill="#000000" font-family="sans-serif" font-size="11" lengthAdjust="spacing" textLength="97" x="145" y="318.7939">void buildArchitect()</text><ellipse cx="136" cy="328.2109" fill="#84BE84" rx="3" ry="3" style="stroke:#038048;stroke-width:1.0;"/><text fill="#000000" font-family="sans-serif" font-size="11" lengthAdjust="spacing" textLength="112" x="145" y="332.6299">void normalBehaviour()</text><ellipse cx="136" cy="342.0469" fill="#84BE84" rx="3" ry="3" style="stroke:#038048;stroke-width:1.0;"/><text fill="#000000" font-family="sans-serif" font-size="11" lengthAdjust="spacing" textLength="126" x="145" y="346.4658">void endGameBehaviour()</text><ellipse cx="136" cy="355.8828" fill="#84BE84" rx="3" ry="3" style="stroke:#038048;stroke-width:1.0;"/><text fill="#000000" font-family="sans-serif" font-size="11" lengthAdjust="spacing" textLength="119" x="145" y="360.3018">void lastTurnBehaviour()</text><ellipse cx="136" cy="369.7188" fill="#84BE84" rx="3" ry="3" style="stroke:#038048;stroke-width:1.0;"/><text fill="#000000" font-family="sans-serif" font-size="11" lengthAdjust="spacing" textLength="414" x="145" y="374.1377">Character selectCharacterForSpell(LinkedHashMap&lt;Character,Optional&lt;Behaviour&gt;&gt;)</text><ellipse cx="136" cy="383.5547" fill="#84BE84" rx="3" ry="3" style="stroke:#038048;stroke-width:1.0;"/><text fill="#000000" font-family="sans-serif" font-size="11" lengthAdjust="spacing" textLength="154" x="145" y="387.9736">Player selectPlayerForWarlord()</text><rect fill="#F24D5C" height="6" style="stroke:#C82930;stroke-width:1.0;" width="6" x="133" y="394.3906"/><text fill="#000000" font-family="sans-serif" font-size="11" lengthAdjust="spacing" textLength="440" x="145" y="401.8096">Character chooseCharacterForMagician(LinkedHashMap&lt;Character,Optional&lt;Behaviour&gt;&gt;)</text><rect fill="#F24D5C" height="6" style="stroke:#C82930;stroke-width:1.0;" width="6" x="133" y="408.2266"/><text fill="#000000" font-family="sans-serif" font-size="11" lengthAdjust="spacing" textLength="444" x="145" y="415.6455">Character chooseCharacterForAssassin(LinkedHashMap&lt;Character,Optional&lt;Behaviour&gt;&gt;)</text><rect fill="#F24D5C" height="6" style="stroke:#C82930;stroke-width:1.0;" width="6" x="133" y="422.0625"/><text fill="#000000" font-family="sans-serif" font-size="11" lengthAdjust="spacing" textLength="422" x="145" y="429.4814">Character chooseCharacterForThief(LinkedHashMap&lt;Character,Optional&lt;Behaviour&gt;&gt;)</text><ellipse cx="136" cy="438.8984" fill="#84BE84" rx="3" ry="3" style="stroke:#038048;stroke-width:1.0;"/><text fill="#000000" font-family="sans-serif" font-size="11" lengthAdjust="spacing" textLength="141" x="145" y="443.3174">void ifPossibleBuildADistrict()</text><ellipse cx="136" cy="452.7344" fill="#84BE84" rx="3" ry="3" style="stroke:#038048;stroke-width:1.0;"/><text fill="#000000" font-family="sans-serif" font-size="11" lengthAdjust="spacing" textLength="214" x="145" y="457.1533">ArrayList&lt;District&gt; pick2CardsIntoTheDeck()</text><ellipse cx="136" cy="466.5703" fill="#84BE84" rx="3" ry="3" style="stroke:#038048;stroke-width:1.0;"/><text fill="#000000" font-family="sans-serif" font-size="11" lengthAdjust="spacing" textLength="352" x="145" y="470.9893">ArrayList&lt;District&gt; chooseToKeepOrNotPickedCards(ArrayList&lt;District&gt;)</text><ellipse cx="136" cy="480.4063" fill="#84BE84" rx="3" ry="3" style="stroke:#038048;stroke-width:1.0;"/><text fill="#000000" font-family="sans-serif" font-size="11" lengthAdjust="spacing" textLength="107" x="145" y="484.8252">void takeCard(District)</text><ellipse cx="136" cy="494.2422" fill="#84BE84" rx="3" ry="3" style="stroke:#038048;stroke-width:1.0;"/><text fill="#000000" font-family="sans-serif" font-size="11" lengthAdjust="spacing" textLength="73" x="145" y="498.6611">void takeGold()</text><ellipse cx="136" cy="508.0781" fill="#84BE84" rx="3" ry="3" style="stroke:#038048;stroke-width:1.0;"/><text fill="#000000" font-family="sans-serif" font-size="11" lengthAdjust="spacing" textLength="115" x="145" y="512.4971">void addDistrict(District)</text><ellipse cx="136" cy="521.9141" fill="#84BE84" rx="3" ry="3" style="stroke:#038048;stroke-width:1.0;"/><text fill="#000000" font-family="sans-serif" font-size="11" lengthAdjust="spacing" textLength="119" x="145" y="526.333">void buildDistrict(District)</text><ellipse cx="136" cy="535.75" fill="#84BE84" rx="3" ry="3" style="stroke:#038048;stroke-width:1.0;"/><text fill="#000000" font-family="sans-serif" font-size="11" lengthAdjust="spacing" textLength="86" x="145" y="540.1689">District pickCard()</text><ellipse cx="136" cy="549.5859" fill="#84BE84" rx="3" ry="3" style="stroke:#038048;stroke-width:1.0;"/><text fill="#000000" font-family="sans-serif" font-size="11" lengthAdjust="spacing" textLength="124" x="145" y="554.0049">District pickCardsInDeck()</text><polygon fill="#4177AF" points="136,559.4219,132,565.4219,140,565.4219" style="stroke:#1963A0;stroke-width:1.0;"/><text fill="#000000" font-family="sans-serif" font-size="11" lengthAdjust="spacing" textLength="243" x="145" y="567.8408">void removeOtherCard(ArrayList&lt;District&gt;,District)</text><ellipse cx="136" cy="577.2578" fill="#84BE84" rx="3" ry="3" style="stroke:#038048;stroke-width:1.0;"/><text fill="#000000" font-family="sans-serif" font-size="11" lengthAdjust="spacing" textLength="244" x="145" y="581.6768">District chooseBetweenTwoCards(District,District)</text><ellipse cx="136" cy="591.0938" fill="#84BE84" rx="3" ry="3" style="stroke:#038048;stroke-width:1.0;"/><text fill="#000000" font-family="sans-serif" font-size="11" lengthAdjust="spacing" textLength="80" x="145" y="595.5127">int randomInt(int)</text><ellipse cx="136" cy="604.9297" fill="#84BE84" rx="3" ry="3" style="stroke:#038048;stroke-width:1.0;"/><text fill="#000000" font-family="sans-serif" font-size="11" lengthAdjust="spacing" textLength="165" x="145" y="609.3486">void setCharacterIsAlive(Boolean)</text><ellipse cx="136" cy="618.7656" fill="#84BE84" rx="3" ry="3" style="stroke:#038048;stroke-width:1.0;"/><text fill="#000000" font-family="sans-serif" font-size="11" lengthAdjust="spacing" textLength="86" x="145" y="623.1846">Player getPlayer()</text><ellipse cx="136" cy="632.6016" fill="#84BE84" rx="3" ry="3" style="stroke:#038048;stroke-width:1.0;"/><text fill="#000000" font-family="sans-serif" font-size="11" lengthAdjust="spacing" textLength="143" x="145" y="637.0205">Boolean getBehaviourIsKing()</text><ellipse cx="136" cy="646.4375" fill="#84BE84" rx="3" ry="3" style="stroke:#038048;stroke-width:1.0;"/><text fill="#000000" font-family="sans-serif" font-size="11" lengthAdjust="spacing" textLength="165" x="145" y="650.8564">CityManagement getCityManager()</text><ellipse cx="136" cy="660.2734" fill="#84BE84" rx="3" ry="3" style="stroke:#038048;stroke-width:1.0;"/><text fill="#000000" font-family="sans-serif" font-size="11" lengthAdjust="spacing" textLength="112" x="145" y="664.6924">Executor getExecutor()</text><ellipse cx="136" cy="674.1094" fill="#84BE84" rx="3" ry="3" style="stroke:#038048;stroke-width:1.0;"/><text fill="#000000" font-family="sans-serif" font-size="11" lengthAdjust="spacing" textLength="210" x="145" y="678.5283">ArrayList&lt;District&gt; chooseMagicianAction()</text><ellipse cx="136" cy="687.9453" fill="#84BE84" rx="3" ry="3" style="stroke:#038048;stroke-width:1.0;"/><text fill="#000000" font-family="sans-serif" font-size="11" lengthAdjust="spacing" textLength="193" x="145" y="692.3643">District chooseDistrictToDestroy(Player)</text><!--MD5=[e5c882cf84928f6a26947fffa9e9e45b]
class fr.unice.polytech.citadelle.game_interactor.game_behaviour.Rusher--><rect codeLine="55" fill="#FEFECE" filter="url(#f1rpjy5kvr94il)" height="186.3594" id="fr.unice.polytech.citadelle.game_interactor.game_behaviour.Rusher" style="stroke:#A80036;stroke-width:1.5;" width="330" x="359" y="759"/><ellipse cx="499.25" cy="775" fill="#ADD1B2" rx="11" ry="11" style="stroke:#A80036;stroke-width:1.0;"/><path d="M501.25,771.5 Q501.4531,771 501.6875,770.75 Q501.9219,770.5 502.1875,770.5 Q502.6563,770.5 502.9531,770.7813 Q503.25,771.0625 503.25,771.7188 L503.25,773.2813 Q503.25,773.9375 502.9688,774.2188 Q502.6875,774.5 502.25,774.5 Q501.8594,774.5 501.6094,774.3281 Q501.3594,774.1563 501.25,773.7031 Q501.2031,773.3906 501.0313,773.2188 Q500.7188,772.8906 500.1563,772.7031 Q499.5938,772.5 499.0313,772.5 Q498.3281,772.5 497.7344,772.7813 Q497.1563,773.0625 496.7031,773.6875 Q496.25,774.3125 496.25,775.1719 L496.25,776.0938 Q496.25,777.125 497.0938,777.8125 Q497.9375,778.5 499.4375,778.5 Q500.3281,778.5 500.9531,778.2969 Q501.3125,778.1875 501.7188,777.8281 Q501.9844,777.625 502.125,777.5625 Q502.2656,777.5 502.4375,777.5 Q502.7656,777.5 503,777.7656 Q503.25,778.0156 503.25,778.375 Q503.25,778.7188 502.9063,779.125 Q502.4063,779.7188 501.6094,780.0469 Q500.5625,780.5 499.2813,780.5 Q497.7813,780.5 496.5781,779.9063 Q495.6094,779.4375 494.9219,778.4219 Q494.25,777.4063 494.25,776.2031 L494.25,775.1094 Q494.25,773.8594 494.8438,772.7656 Q495.4531,771.6719 496.5,771.0938 Q497.5625,770.5 498.75,770.5 Q499.4688,770.5 500.0938,770.75 Q500.7188,771 501.25,771.5 Z " fill="#000000"/><text fill="#000000" font-family="sans-serif" font-size="12" lengthAdjust="spacing" textLength="41" x="519.75" y="779.9102">Rusher</text><line style="stroke:#A80036;stroke-width:1.5;" x1="360" x2="688" y1="791" y2="791"/><rect fill="none" height="6" style="stroke:#C82930;stroke-width:1.0;" width="6" x="367" y="799"/><text fill="#000000" font-family="sans-serif" font-size="11" lengthAdjust="spacing" text-decoration="underline" textLength="147" x="379" y="806.4189">int MAX_VALUES_OF_CARDS</text><line style="stroke:#A80036;stroke-width:1.5;" x1="360" x2="688" y1="812.8359" y2="812.8359"/><ellipse cx="370" cy="823.8359" fill="#84BE84" rx="3" ry="3" style="stroke:#038048;stroke-width:1.0;"/><text fill="#000000" font-family="sans-serif" font-size="11" lengthAdjust="spacing" textLength="152" x="379" y="828.2549">«Create» Rusher(Player,Board)</text><ellipse cx="370" cy="837.6719" fill="#84BE84" rx="3" ry="3" style="stroke:#038048;stroke-width:1.0;"/><text fill="#000000" font-family="sans-serif" font-size="11" lengthAdjust="spacing" textLength="266" x="379" y="842.0908">void executeSpell(ArrayList&lt;SpellDistrict&gt;,DeckDistrict)</text><ellipse cx="370" cy="851.5078" fill="#84BE84" rx="3" ry="3" style="stroke:#038048;stroke-width:1.0;"/><text fill="#000000" font-family="sans-serif" font-size="11" lengthAdjust="spacing" textLength="112" x="379" y="855.9268">void normalBehaviour()</text><ellipse cx="370" cy="865.3438" fill="#84BE84" rx="3" ry="3" style="stroke:#038048;stroke-width:1.0;"/><text fill="#000000" font-family="sans-serif" font-size="11" lengthAdjust="spacing" textLength="126" x="379" y="869.7627">void endGameBehaviour()</text><ellipse cx="370" cy="879.1797" fill="#84BE84" rx="3" ry="3" style="stroke:#038048;stroke-width:1.0;"/><text fill="#000000" font-family="sans-serif" font-size="11" lengthAdjust="spacing" textLength="119" x="379" y="883.5986">void lastTurnBehaviour()</text><ellipse cx="370" cy="893.0156" fill="#84BE84" rx="3" ry="3" style="stroke:#038048;stroke-width:1.0;"/><text fill="#000000" font-family="sans-serif" font-size="11" lengthAdjust="spacing" textLength="172" x="379" y="897.4346">void ifPossibleBuildACheapDistrict()</text><ellipse cx="370" cy="906.8516" fill="#84BE84" rx="3" ry="3" style="stroke:#038048;stroke-width:1.0;"/><text fill="#000000" font-family="sans-serif" font-size="11" lengthAdjust="spacing" textLength="223" x="379" y="911.2705">District getCheaperDistrict(ArrayList&lt;District&gt;)</text><rect fill="#F24D5C" height="6" style="stroke:#C82930;stroke-width:1.0;" width="6" x="367" y="917.6875"/><text fill="#000000" font-family="sans-serif" font-size="11" lengthAdjust="spacing" textLength="304" x="379" y="925.1064">ArrayList&lt;District&gt; getAllCheapersDistricts(ArrayList&lt;District&gt;)</text><ellipse cx="370" cy="934.5234" fill="#84BE84" rx="3" ry="3" style="stroke:#038048;stroke-width:1.0;"/><text fill="#000000" font-family="sans-serif" font-size="11" lengthAdjust="spacing" textLength="244" x="379" y="938.9424">District chooseBetweenTwoCards(District,District)</text><!--MD5=[c392c1edea867aaeeb57ff2050b1b92b]
reverse link fr.unice.polytech.citadelle.game_interactor.game_behaviour.Behaviour to fr.unice.polytech.citadelle.game_interactor.game_behaviour.Investor--><path codeLine="69" d="M228.35,718.35 C218.83,743.43 210.06,766.54 202.59,786.21 " fill="none" id="fr.unice.polytech.citadelle.game_interactor.game_behaviour.Behaviour-backto-fr.unice.polytech.citadelle.game_interactor.game_behaviour.Investor" style="stroke:#A80036;stroke-width:1.0;"/><polygon fill="none" points="221.94,715.5,235.59,699.28,235.03,720.47,221.94,715.5" style="stroke:#A80036;stroke-width:1.0;"/><!--MD5=[f83d459cf64b7fd6ceb5037d45f2b2b2]
reverse link fr.unice.polytech.citadelle.game_interactor.game_behaviour.Behaviour to fr.unice.polytech.citadelle.game_interactor.game_behaviour.Rusher--><path codeLine="70" d="M478.64,718.37 C483.52,732.63 488.18,746.26 492.52,758.97 " fill="none" id="fr.unice.polytech.citadelle.game_interactor.game_behaviour.Behaviour-backto-fr.unice.polytech.citadelle.game_interactor.game_behaviour.Rusher" style="stroke:#A80036;stroke-width:1.0;"/><polygon fill="none" points="471.96,720.47,472.11,699.28,485.21,715.94,471.96,720.47" style="stroke:#A80036;stroke-width:1.0;"/><!--MD5=[84abda86edfe11fa87a9c92a6fac9a34]
@startuml
class fr.unice.polytech.citadelle.game_interactor.game_behaviour.Investor {
+ <<Create>> Investor(Player,Board)
+ void executeSpell(ArrayList<SpellDistrict>,DeckDistrict)
+ void normalBehaviour()
+ void endGameBehaviour()
+ void lastTurnBehaviour()
+ District chooseBetweenTwoCards(District,District)
}
class fr.unice.polytech.citadelle.game_interactor.game_behaviour.Behaviour {
# Player player
# int numberOfCharacter
~ Strategy strategy
~ CityManagement cityMan
~ Executor executor
~ PhaseManager phaseManager
~ Board board
# {static} int ZERO_CARD
# {static} int ONE_CARD
# {static} int TWO_CARD
+ <<Create>> Behaviour(Player,Board)
+ District selectTheHigherDistrict(ArrayList<District>)
+ District selectTheLowerDistrict(ArrayList<District>)
+ Character play(LinkedHashMap<Character,Optional<Behaviour>>)
- void executeSpellOfCharacter(Behaviour,LinkedHashMap<Character,Optional<Behaviour>>)
- void executeSpellOfPurpleDistricts(Player)
+ void buildArchitect()
+ void normalBehaviour()
+ void endGameBehaviour()
+ void lastTurnBehaviour()
+ Character selectCharacterForSpell(LinkedHashMap<Character,Optional<Behaviour>>)
+ Player selectPlayerForWarlord()
- Character chooseCharacterForMagician(LinkedHashMap<Character,Optional<Behaviour>>)
- Character chooseCharacterForAssassin(LinkedHashMap<Character,Optional<Behaviour>>)
- Character chooseCharacterForThief(LinkedHashMap<Character,Optional<Behaviour>>)
+ void ifPossibleBuildADistrict()
+ ArrayList<District> pick2CardsIntoTheDeck()
+ ArrayList<District> chooseToKeepOrNotPickedCards(ArrayList<District>)
+ void takeCard(District)
+ void takeGold()
+ void addDistrict(District)
+ void buildDistrict(District)
+ District pickCard()
+ District pickCardsInDeck()
~ void removeOtherCard(ArrayList<District>,District)
+ District chooseBetweenTwoCards(District,District)
+ int randomInt(int)
+ void setCharacterIsAlive(Boolean)
+ Player getPlayer()
+ Boolean getBehaviourIsKing()
+ CityManagement getCityManager()
+ Executor getExecutor()
+ ArrayList<District> chooseMagicianAction()
+ District chooseDistrictToDestroy(Player)
}
class fr.unice.polytech.citadelle.game_interactor.game_behaviour.Rusher {
- {static} int MAX_VALUES_OF_CARDS
+ <<Create>> Rusher(Player,Board)
+ void executeSpell(ArrayList<SpellDistrict>,DeckDistrict)
+ void normalBehaviour()
+ void endGameBehaviour()
+ void lastTurnBehaviour()
+ void ifPossibleBuildACheapDistrict()
+ District getCheaperDistrict(ArrayList<District>)
- ArrayList<District> getAllCheapersDistricts(ArrayList<District>)
+ District chooseBetweenTwoCards(District,District)
}


fr.unice.polytech.citadelle.game_interactor.game_behaviour.Behaviour <|- - fr.unice.polytech.citadelle.game_interactor.game_behaviour.Investor
fr.unice.polytech.citadelle.game_interactor.game_behaviour.Behaviour <|- - fr.unice.polytech.citadelle.game_interactor.game_behaviour.Rusher
@enduml

PlantUML version 1.2021.16(Wed Dec 08 18:25:22 CET 2021)
(GPL source distribution)
Java Runtime: OpenJDK Runtime Environment
JVM: OpenJDK 64-Bit Server VM
Default Encoding: Cp1252
Language: fr
Country: FR
--></g></svg>