<?xml version="1.0" encoding="UTF-8" standalone="no"?><svg xmlns="http://www.w3.org/2000/svg" xmlns:xlink="http://www.w3.org/1999/xlink" contentScriptType="application/ecmascript" contentStyleType="text/css" height="556px" preserveAspectRatio="none" style="width:1068px;height:556px;background:#FFFFFF;" version="1.1" viewBox="0 0 1068 556" width="1068px" zoomAndPan="magnify"><defs><filter height="300%" id="fs3iv4nipmac7" width="300%" x="-1" y="-1"><feGaussianBlur result="blurOut" stdDeviation="2.0"/><feColorMatrix in="blurOut" result="blurOut2" type="matrix" values="0 0 0 0 0 0 0 0 0 0 0 0 0 0 0 0 0 0 .4 0"/><feOffset dx="4.0" dy="4.0" in="blurOut2" result="blurOut3"/><feBlend in="SourceGraphic" in2="blurOut3" mode="normal"/></filter></defs><g><!--MD5=[f79b9ef6658e32219241fcda4abb13d6]
cluster fr.unice.polytech.citadelle.game_interactor.game_strategy--><polygon fill="#FFFFFF" filter="url(#fs3iv4nipmac7)" points="16,6,430,6,437,29.6094,1051,29.6094,1051,549,16,549,16,6" style="stroke:#000000;stroke-width:1.5;"/><line style="stroke:#000000;stroke-width:1.5;" x1="16" x2="437" y1="29.6094" y2="29.6094"/><text fill="#000000" font-family="sans-serif" font-size="14" font-weight="bold" lengthAdjust="spacing" textLength="408" x="20" y="22.5332">fr.unice.polytech.citadelle.game_interactor.game_strategy</text><!--MD5=[ddba1f56a1730d48efb38dd68e23283d]
class fr.unice.polytech.citadelle.game_interactor.game_strategy.Strategy--><rect codeLine="1" fill="#FEFECE" filter="url(#fs3iv4nipmac7)" height="490.75" id="fr.unice.polytech.citadelle.game_interactor.game_strategy.Strategy" style="stroke:#A80036;stroke-width:1.5;" width="509" x="525.5" y="42"/><ellipse cx="753.75" cy="58" fill="#ADD1B2" rx="11" ry="11" style="stroke:#A80036;stroke-width:1.0;"/><path d="M755.75,54.5 Q755.9531,54 756.1875,53.75 Q756.4219,53.5 756.6875,53.5 Q757.1563,53.5 757.4531,53.7813 Q757.75,54.0625 757.75,54.7188 L757.75,56.2813 Q757.75,56.9375 757.4688,57.2188 Q757.1875,57.5 756.75,57.5 Q756.3594,57.5 756.1094,57.3281 Q755.8594,57.1563 755.75,56.7031 Q755.7031,56.3906 755.5313,56.2188 Q755.2188,55.8906 754.6563,55.7031 Q754.0938,55.5 753.5313,55.5 Q752.8281,55.5 752.2344,55.7813 Q751.6563,56.0625 751.2031,56.6875 Q750.75,57.3125 750.75,58.1719 L750.75,59.0938 Q750.75,60.125 751.5938,60.8125 Q752.4375,61.5 753.9375,61.5 Q754.8281,61.5 755.4531,61.2969 Q755.8125,61.1875 756.2188,60.8281 Q756.4844,60.625 756.625,60.5625 Q756.7656,60.5 756.9375,60.5 Q757.2656,60.5 757.5,60.7656 Q757.75,61.0156 757.75,61.375 Q757.75,61.7188 757.4063,62.125 Q756.9063,62.7188 756.1094,63.0469 Q755.0625,63.5 753.7813,63.5 Q752.2813,63.5 751.0781,62.9063 Q750.1094,62.4375 749.4219,61.4219 Q748.75,60.4063 748.75,59.2031 L748.75,58.1094 Q748.75,56.8594 749.3438,55.7656 Q749.9531,54.6719 751,54.0938 Q752.0625,53.5 753.25,53.5 Q753.9688,53.5 754.5938,53.75 Q755.2188,54 755.75,54.5 Z " fill="#000000"/><text fill="#000000" font-family="sans-serif" font-size="12" lengthAdjust="spacing" textLength="44" x="774.25" y="62.9102">Strategy</text><line style="stroke:#A80036;stroke-width:1.5;" x1="526.5" x2="1033.5" y1="74" y2="74"/><polygon fill="none" points="536.5,81,532.5,87,540.5,87" style="stroke:#1963A0;stroke-width:1.0;"/><text fill="#000000" font-family="sans-serif" font-size="11" lengthAdjust="spacing" textLength="63" x="545.5" y="89.4189">Player player</text><polygon fill="none" points="536.5,94.8359,532.5,100.8359,540.5,100.8359" style="stroke:#1963A0;stroke-width:1.0;"/><text fill="#000000" font-family="sans-serif" font-size="11" lengthAdjust="spacing" textLength="60" x="545.5" y="103.2549">Board board</text><polygon fill="none" points="536.5,108.6719,532.5,114.6719,540.5,114.6719" style="stroke:#1963A0;stroke-width:1.0;"/><text fill="#000000" font-family="sans-serif" font-size="11" lengthAdjust="spacing" textLength="69" x="545.5" y="117.0908">Predict predict</text><polygon fill="none" points="536.5,122.5078,532.5,128.5078,540.5,128.5078" style="stroke:#1963A0;stroke-width:1.0;"/><text fill="#000000" font-family="sans-serif" font-size="11" lengthAdjust="spacing" textLength="110" x="545.5" y="130.9268">int numberOfCharacter</text><line style="stroke:#A80036;stroke-width:1.5;" x1="526.5" x2="1033.5" y1="137.3438" y2="137.3438"/><ellipse cx="536.5" cy="148.3438" fill="#84BE84" rx="3" ry="3" style="stroke:#038048;stroke-width:1.0;"/><text fill="#000000" font-family="sans-serif" font-size="11" lengthAdjust="spacing" textLength="172" x="545.5" y="152.7627">«Create» Strategy(int,Board,Player)</text><ellipse cx="536.5" cy="162.1797" fill="#84BE84" rx="3" ry="3" style="stroke:#038048;stroke-width:1.0;"/><text fill="#000000" font-family="sans-serif" font-size="11" lengthAdjust="spacing" textLength="208" x="545.5" y="166.5986">«Create» Strategy(int,Board,Player,Predict)</text><ellipse cx="536.5" cy="176.0156" fill="#84BE84" rx="3" ry="3" style="stroke:#038048;stroke-width:1.0;"/><text fill="#000000" font-family="sans-serif" font-size="11" lengthAdjust="spacing" textLength="80" x="545.5" y="180.4346">int randomInt(int)</text><ellipse cx="536.5" cy="189.8516" fill="#84BE84" rx="3" ry="3" style="stroke:#038048;stroke-width:1.0;"/><text fill="#000000" font-family="sans-serif" font-size="11" lengthAdjust="spacing" textLength="461" x="545.5" y="194.2705">Character chooseCharacterForThiefRandom(LinkedHashMap&lt;Character,Optional&lt;Behaviour&gt;&gt;)</text><ellipse cx="536.5" cy="203.6875" fill="#84BE84" rx="3" ry="3" style="stroke:#038048;stroke-width:1.0;"/><text fill="#000000" font-family="sans-serif" font-size="11" lengthAdjust="spacing" textLength="483" x="545.5" y="208.1064">Character chooseCharacterForAssassinRandom(LinkedHashMap&lt;Character,Optional&lt;Behaviour&gt;&gt;)</text><ellipse cx="536.5" cy="217.5234" fill="#84BE84" rx="3" ry="3" style="stroke:#038048;stroke-width:1.0;"/><text fill="#000000" font-family="sans-serif" font-size="11" lengthAdjust="spacing" textLength="479" x="545.5" y="221.9424">Character chooseCharacterForMagicianRandom(LinkedHashMap&lt;Character,Optional&lt;Behaviour&gt;&gt;)</text><ellipse cx="536.5" cy="231.3594" fill="#84BE84" rx="3" ry="3" style="stroke:#038048;stroke-width:1.0;"/><text fill="#000000" font-family="sans-serif" font-size="11" lengthAdjust="spacing" textLength="200" x="545.5" y="235.7783">Player choosePlayerForWarlordRandom()</text><ellipse cx="536.5" cy="245.1953" fill="#84BE84" rx="3" ry="3" style="stroke:#038048;stroke-width:1.0;"/><text fill="#000000" font-family="sans-serif" font-size="11" lengthAdjust="spacing" textLength="211" x="545.5" y="249.6143">Player choosePlayerForWarlordAdvanced()</text><ellipse cx="536.5" cy="259.0313" fill="#84BE84" rx="3" ry="3" style="stroke:#038048;stroke-width:1.0;"/><text fill="#000000" font-family="sans-serif" font-size="11" lengthAdjust="spacing" textLength="255" x="545.5" y="263.4502">Character chooseCharacterForAssassinAdvanced()</text><ellipse cx="536.5" cy="272.8672" fill="#84BE84" rx="3" ry="3" style="stroke:#038048;stroke-width:1.0;"/><text fill="#000000" font-family="sans-serif" font-size="11" lengthAdjust="spacing" textLength="233" x="545.5" y="277.2861">Character chooseCharacterForThiefAdvanced()</text><ellipse cx="536.5" cy="286.7031" fill="#84BE84" rx="3" ry="3" style="stroke:#038048;stroke-width:1.0;"/><text fill="#000000" font-family="sans-serif" font-size="11" lengthAdjust="spacing" textLength="251" x="545.5" y="291.1221">Character chooseCharacterForMagicianAdvanced()</text><rect fill="#F24D5C" height="6" style="stroke:#C82930;stroke-width:1.0;" width="6" x="533.5" y="297.5391"/><text fill="#000000" font-family="sans-serif" font-size="11" lengthAdjust="spacing" textLength="180" x="545.5" y="304.958">Player findThePlayerWithMostCards()</text><ellipse cx="536.5" cy="314.375" fill="#84BE84" rx="3" ry="3" style="stroke:#038048;stroke-width:1.0;"/><text fill="#000000" font-family="sans-serif" font-size="11" lengthAdjust="spacing" textLength="179" x="545.5" y="318.7939">Player findThePlayerWithMostGolds()</text><ellipse cx="536.5" cy="328.2109" fill="#84BE84" rx="3" ry="3" style="stroke:#038048;stroke-width:1.0;"/><text fill="#000000" font-family="sans-serif" font-size="11" lengthAdjust="spacing" textLength="239" x="545.5" y="332.6299">Player findThePlayerWithClosestScoreAssassin()</text><ellipse cx="536.5" cy="342.0469" fill="#84BE84" rx="3" ry="3" style="stroke:#038048;stroke-width:1.0;"/><text fill="#000000" font-family="sans-serif" font-size="11" lengthAdjust="spacing" textLength="191" x="545.5" y="346.4658">int warlordInterestScore(District,Player)</text><ellipse cx="536.5" cy="355.8828" fill="#84BE84" rx="3" ry="3" style="stroke:#038048;stroke-width:1.0;"/><text fill="#000000" font-family="sans-serif" font-size="11" lengthAdjust="spacing" textLength="193" x="545.5" y="360.3018">District chooseDistrictToDestroy(Player)</text><ellipse cx="536.5" cy="369.7188" fill="#84BE84" rx="3" ry="3" style="stroke:#038048;stroke-width:1.0;"/><text fill="#000000" font-family="sans-serif" font-size="11" lengthAdjust="spacing" textLength="265" x="545.5" y="374.1377">ArrayList&lt;District&gt; chooseMagicianActionForRandom()</text><ellipse cx="536.5" cy="383.5547" fill="#84BE84" rx="3" ry="3" style="stroke:#038048;stroke-width:1.0;"/><text fill="#000000" font-family="sans-serif" font-size="11" lengthAdjust="spacing" textLength="260" x="545.5" y="387.9736">ArrayList&lt;District&gt; chooseMagicianActionAdvanced()</text><rect fill="#F24D5C" height="6" style="stroke:#C82930;stroke-width:1.0;" width="6" x="533.5" y="394.3906"/><text fill="#000000" font-family="sans-serif" font-size="11" lengthAdjust="spacing" textLength="196" x="545.5" y="401.8096">ArrayList&lt;District&gt; CardToBeSwapped()</text><rect fill="#F24D5C" height="6" style="stroke:#C82930;stroke-width:1.0;" width="6" x="533.5" y="408.2266"/><text fill="#000000" font-family="sans-serif" font-size="11" lengthAdjust="spacing" textLength="209" x="545.5" y="415.6455">boolean isThereAPlayerWithTwoTimesHis()</text><ellipse cx="536.5" cy="425.0625" fill="#84BE84" rx="3" ry="3" style="stroke:#038048;stroke-width:1.0;"/><text fill="#000000" font-family="sans-serif" font-size="11" lengthAdjust="spacing" textLength="131" x="545.5" y="429.4814">int cityDistrictScore(Player)</text><ellipse cx="536.5" cy="438.8984" fill="#84BE84" rx="3" ry="3" style="stroke:#038048;stroke-width:1.0;"/><text fill="#000000" font-family="sans-serif" font-size="11" lengthAdjust="spacing" textLength="144" x="545.5" y="443.3174">int playerPredictScore(Player)</text><ellipse cx="536.5" cy="452.7344" fill="#84BE84" rx="3" ry="3" style="stroke:#038048;stroke-width:1.0;"/><text fill="#000000" font-family="sans-serif" font-size="11" lengthAdjust="spacing" textLength="181" x="545.5" y="457.1533">boolean hasFiveDistrictColors(Player)</text><ellipse cx="536.5" cy="466.5703" fill="#84BE84" rx="3" ry="3" style="stroke:#038048;stroke-width:1.0;"/><text fill="#000000" font-family="sans-serif" font-size="11" lengthAdjust="spacing" textLength="238" x="545.5" y="470.9893">int countNumberOfDistrictWithColor(Player,String)</text><ellipse cx="536.5" cy="480.4063" fill="#84BE84" rx="3" ry="3" style="stroke:#038048;stroke-width:1.0;"/><text fill="#000000" font-family="sans-serif" font-size="11" lengthAdjust="spacing" textLength="204" x="545.5" y="484.8252">String has3districtWithSameColour(Player)</text><ellipse cx="536.5" cy="494.2422" fill="#84BE84" rx="3" ry="3" style="stroke:#038048;stroke-width:1.0;"/><text fill="#000000" font-family="sans-serif" font-size="11" lengthAdjust="spacing" textLength="267" x="545.5" y="498.6611">Character getAPrediction(Player,ArrayList&lt;Character&gt;)</text><ellipse cx="536.5" cy="508.0781" fill="#84BE84" rx="3" ry="3" style="stroke:#038048;stroke-width:1.0;"/><text fill="#000000" font-family="sans-serif" font-size="11" lengthAdjust="spacing" textLength="92" x="545.5" y="512.4971">Predict getPredict()</text><ellipse cx="536.5" cy="521.9141" fill="#84BE84" rx="3" ry="3" style="stroke:#038048;stroke-width:1.0;"/><text fill="#000000" font-family="sans-serif" font-size="11" lengthAdjust="spacing" textLength="245" x="545.5" y="526.333">Optional&lt;Character&gt; getCharacterOfPlayer(Player)</text><!--MD5=[d777854318613c3adac38d12e5a51ec5]
class fr.unice.polytech.citadelle.game_interactor.game_strategy.Predict--><rect codeLine="35" fill="#FEFECE" filter="url(#fs3iv4nipmac7)" height="297.0469" id="fr.unice.polytech.citadelle.game_interactor.game_strategy.Predict" style="stroke:#A80036;stroke-width:1.5;" width="458" x="32" y="139"/><ellipse cx="237.75" cy="155" fill="#ADD1B2" rx="11" ry="11" style="stroke:#A80036;stroke-width:1.0;"/><path d="M239.75,151.5 Q239.9531,151 240.1875,150.75 Q240.4219,150.5 240.6875,150.5 Q241.1563,150.5 241.4531,150.7813 Q241.75,151.0625 241.75,151.7188 L241.75,153.2813 Q241.75,153.9375 241.4688,154.2188 Q241.1875,154.5 240.75,154.5 Q240.3594,154.5 240.1094,154.3281 Q239.8594,154.1563 239.75,153.7031 Q239.7031,153.3906 239.5313,153.2188 Q239.2188,152.8906 238.6563,152.7031 Q238.0938,152.5 237.5313,152.5 Q236.8281,152.5 236.2344,152.7813 Q235.6563,153.0625 235.2031,153.6875 Q234.75,154.3125 234.75,155.1719 L234.75,156.0938 Q234.75,157.125 235.5938,157.8125 Q236.4375,158.5 237.9375,158.5 Q238.8281,158.5 239.4531,158.2969 Q239.8125,158.1875 240.2188,157.8281 Q240.4844,157.625 240.625,157.5625 Q240.7656,157.5 240.9375,157.5 Q241.2656,157.5 241.5,157.7656 Q241.75,158.0156 241.75,158.375 Q241.75,158.7188 241.4063,159.125 Q240.9063,159.7188 240.1094,160.0469 Q239.0625,160.5 237.7813,160.5 Q236.2813,160.5 235.0781,159.9063 Q234.1094,159.4375 233.4219,158.4219 Q232.75,157.4063 232.75,156.2031 L232.75,155.1094 Q232.75,153.8594 233.3438,152.7656 Q233.9531,151.6719 235,151.0938 Q236.0625,150.5 237.25,150.5 Q237.9688,150.5 238.5938,150.75 Q239.2188,151 239.75,151.5 Z " fill="#000000"/><text fill="#000000" font-family="sans-serif" font-size="12" lengthAdjust="spacing" textLength="38" x="258.25" y="159.9102">Predict</text><line style="stroke:#A80036;stroke-width:1.5;" x1="33" x2="489" y1="171" y2="171"/><polygon fill="none" points="43,178,39,184,47,184" style="stroke:#1963A0;stroke-width:1.0;"/><text fill="#000000" font-family="sans-serif" font-size="11" lengthAdjust="spacing" textLength="60" x="52" y="186.4189">Board board</text><line style="stroke:#A80036;stroke-width:1.5;" x1="33" x2="489" y1="192.8359" y2="192.8359"/><ellipse cx="43" cy="203.8359" fill="#84BE84" rx="3" ry="3" style="stroke:#038048;stroke-width:1.0;"/><text fill="#000000" font-family="sans-serif" font-size="11" lengthAdjust="spacing" textLength="117" x="52" y="208.2549">«Create» Predict(Board)</text><ellipse cx="43" cy="217.6719" fill="#84BE84" rx="3" ry="3" style="stroke:#038048;stroke-width:1.0;"/><text fill="#000000" font-family="sans-serif" font-size="11" lengthAdjust="spacing" textLength="290" x="52" y="222.0908">Character predictWhoIsPlayer(Player,ArrayList&lt;Character&gt;)</text><rect fill="#F24D5C" height="6" style="stroke:#C82930;stroke-width:1.0;" width="6" x="40" y="228.5078"/><text fill="#000000" font-family="sans-serif" font-size="11" lengthAdjust="spacing" textLength="240" x="52" y="235.9268">Optional&lt;Character&gt; checkAlreadyReveal(Player)</text><ellipse cx="43" cy="245.3438" fill="#84BE84" rx="3" ry="3" style="stroke:#038048;stroke-width:1.0;"/><text fill="#000000" font-family="sans-serif" font-size="11" lengthAdjust="spacing" textLength="180" x="52" y="249.7627">ArrayList&lt;Character&gt; allCharacters()</text><ellipse cx="43" cy="259.1797" fill="#84BE84" rx="3" ry="3" style="stroke:#038048;stroke-width:1.0;"/><text fill="#000000" font-family="sans-serif" font-size="11" lengthAdjust="spacing" textLength="432" x="52" y="263.5986">ArrayList&lt;Character&gt; targetableCharactersForPredictWhoIsPlayer(ArrayList&lt;Character&gt;)</text><rect fill="#F24D5C" height="6" style="stroke:#C82930;stroke-width:1.0;" width="6" x="40" y="270.0156"/><text fill="#000000" font-family="sans-serif" font-size="11" lengthAdjust="spacing" textLength="187" x="52" y="277.4346">int goldsForPredictWhoIsPlayer(Player)</text><rect fill="#F24D5C" height="6" style="stroke:#C82930;stroke-width:1.0;" width="6" x="40" y="283.8516"/><text fill="#000000" font-family="sans-serif" font-size="11" lengthAdjust="spacing" textLength="264" x="52" y="291.2705">ArrayList&lt;District&gt; handForPredictWhoIsPlayer(Player)</text><rect fill="#F24D5C" height="6" style="stroke:#C82930;stroke-width:1.0;" width="6" x="40" y="297.6875"/><text fill="#000000" font-family="sans-serif" font-size="11" lengthAdjust="spacing" textLength="257" x="52" y="305.1064">ArrayList&lt;District&gt; cityForPredictWhoIsPlayer(Player)</text><ellipse cx="43" cy="314.5234" fill="#84BE84" rx="3" ry="3" style="stroke:#038048;stroke-width:1.0;"/><text fill="#000000" font-family="sans-serif" font-size="11" lengthAdjust="spacing" textLength="273" x="52" y="318.9424">ArrayList&lt;Player&gt; playersForPredictWhoIsPlayer(Player)</text><ellipse cx="43" cy="328.3594" fill="#84BE84" rx="3" ry="3" style="stroke:#038048;stroke-width:1.0;"/><text fill="#000000" font-family="sans-serif" font-size="11" lengthAdjust="spacing" textLength="262" x="52" y="332.7783">boolean canBeArchitect(Player,ArrayList&lt;Character&gt;)</text><ellipse cx="43" cy="342.1953" fill="#84BE84" rx="3" ry="3" style="stroke:#038048;stroke-width:1.0;"/><text fill="#000000" font-family="sans-serif" font-size="11" lengthAdjust="spacing" textLength="251" x="52" y="346.6143">boolean canBeBishop(Player,ArrayList&lt;Character&gt;)</text><ellipse cx="43" cy="356.0313" fill="#84BE84" rx="3" ry="3" style="stroke:#038048;stroke-width:1.0;"/><text fill="#000000" font-family="sans-serif" font-size="11" lengthAdjust="spacing" textLength="239" x="52" y="360.4502">boolean canBeKing(Player,ArrayList&lt;Character&gt;)</text><ellipse cx="43" cy="369.8672" fill="#84BE84" rx="3" ry="3" style="stroke:#038048;stroke-width:1.0;"/><text fill="#000000" font-family="sans-serif" font-size="11" lengthAdjust="spacing" textLength="263" x="52" y="374.2861">boolean canBeMerchant(Player,ArrayList&lt;Character&gt;)</text><ellipse cx="43" cy="383.7031" fill="#84BE84" rx="3" ry="3" style="stroke:#038048;stroke-width:1.0;"/><text fill="#000000" font-family="sans-serif" font-size="11" lengthAdjust="spacing" textLength="242" x="52" y="388.1221">boolean canBeThief(Player,ArrayList&lt;Character&gt;)</text><ellipse cx="43" cy="397.5391" fill="#84BE84" rx="3" ry="3" style="stroke:#038048;stroke-width:1.0;"/><text fill="#000000" font-family="sans-serif" font-size="11" lengthAdjust="spacing" textLength="260" x="52" y="401.958">boolean canBeMagician(Player,ArrayList&lt;Character&gt;)</text><ellipse cx="43" cy="411.375" fill="#84BE84" rx="3" ry="3" style="stroke:#038048;stroke-width:1.0;"/><text fill="#000000" font-family="sans-serif" font-size="11" lengthAdjust="spacing" textLength="256" x="52" y="415.7939">boolean canBeWarlord(Player,ArrayList&lt;Character&gt;)</text><ellipse cx="43" cy="425.2109" fill="#84BE84" rx="3" ry="3" style="stroke:#038048;stroke-width:1.0;"/><text fill="#000000" font-family="sans-serif" font-size="11" lengthAdjust="spacing" textLength="148" x="52" y="429.6299">Character listGetCharacter(int)</text><!--MD5=[73859c40973c2dc1c01f4e60fc47ea33]
@startuml
class fr.unice.polytech.citadelle.game_interactor.game_strategy.Strategy {
~ Player player
~ Board board
~ Predict predict
~ int numberOfCharacter
+ <<Create>> Strategy(int,Board,Player)
+ <<Create>> Strategy(int,Board,Player,Predict)
+ int randomInt(int)
+ Character chooseCharacterForThiefRandom(LinkedHashMap<Character,Optional<Behaviour>>)
+ Character chooseCharacterForAssassinRandom(LinkedHashMap<Character,Optional<Behaviour>>)
+ Character chooseCharacterForMagicianRandom(LinkedHashMap<Character,Optional<Behaviour>>)
+ Player choosePlayerForWarlordRandom()
+ Player choosePlayerForWarlordAdvanced()
+ Character chooseCharacterForAssassinAdvanced()
+ Character chooseCharacterForThiefAdvanced()
+ Character chooseCharacterForMagicianAdvanced()
- Player findThePlayerWithMostCards()
+ Player findThePlayerWithMostGolds()
+ Player findThePlayerWithClosestScoreAssassin()
+ int warlordInterestScore(District,Player)
+ District chooseDistrictToDestroy(Player)
+ ArrayList<District> chooseMagicianActionForRandom()
+ ArrayList<District> chooseMagicianActionAdvanced()
- ArrayList<District> CardToBeSwapped()
- boolean isThereAPlayerWithTwoTimesHis()
+ int cityDistrictScore(Player)
+ int playerPredictScore(Player)
+ boolean hasFiveDistrictColors(Player)
+ int countNumberOfDistrictWithColor(Player,String)
+ String has3districtWithSameColour(Player)
+ Character getAPrediction(Player,ArrayList<Character>)
+ Predict getPredict()
+ Optional<Character> getCharacterOfPlayer(Player)
}
class fr.unice.polytech.citadelle.game_interactor.game_strategy.Predict {
~ Board board
+ <<Create>> Predict(Board)
+ Character predictWhoIsPlayer(Player,ArrayList<Character>)
- Optional<Character> checkAlreadyReveal(Player)
+ ArrayList<Character> allCharacters()
+ ArrayList<Character> targetableCharactersForPredictWhoIsPlayer(ArrayList<Character>)
- int goldsForPredictWhoIsPlayer(Player)
- ArrayList<District> handForPredictWhoIsPlayer(Player)
- ArrayList<District> cityForPredictWhoIsPlayer(Player)
+ ArrayList<Player> playersForPredictWhoIsPlayer(Player)
+ boolean canBeArchitect(Player,ArrayList<Character>)
+ boolean canBeBishop(Player,ArrayList<Character>)
+ boolean canBeKing(Player,ArrayList<Character>)
+ boolean canBeMerchant(Player,ArrayList<Character>)
+ boolean canBeThief(Player,ArrayList<Character>)
+ boolean canBeMagician(Player,ArrayList<Character>)
+ boolean canBeWarlord(Player,ArrayList<Character>)
+ Character listGetCharacter(int)
}
@enduml

PlantUML version 1.2021.16(Wed Dec 08 18:25:22 CET 2021)
(GPL source distribution)
Java Runtime: OpenJDK Runtime Environment
JVM: OpenJDK 64-Bit Server VM
Default Encoding: Cp1252
Language: fr
Country: FR
--></g></svg>