<?xml version="1.0" encoding="UTF-8" standalone="no"?><svg xmlns="http://www.w3.org/2000/svg" xmlns:xlink="http://www.w3.org/1999/xlink" contentScriptType="application/ecmascript" contentStyleType="text/css" height="456px" preserveAspectRatio="none" style="width:3542px;height:456px;background:#FFFFFF;" version="1.1" viewBox="0 0 3542 456" width="3542px" zoomAndPan="magnify"><defs><filter height="300%" id="fwjby7axyy6rm" width="300%" x="-1" y="-1"><feGaussianBlur result="blurOut" stdDeviation="2.0"/><feColorMatrix in="blurOut" result="blurOut2" type="matrix" values="0 0 0 0 0 0 0 0 0 0 0 0 0 0 0 0 0 0 .4 0"/><feOffset dx="4.0" dy="4.0" in="blurOut2" result="blurOut3"/><feBlend in="SourceGraphic" in2="blurOut3" mode="normal"/></filter></defs><g><!--MD5=[5b303162117a90db9b85d8723c430119]
cluster fr.unice.polytech.citadelle.game_character--><polygon fill="#FFFFFF" filter="url(#fwjby7axyy6rm)" points="16,6,321,6,328,29.6094,3525,29.6094,3525,449,16,449,16,6" style="stroke:#000000;stroke-width:1.5;"/><line style="stroke:#000000;stroke-width:1.5;" x1="16" x2="328" y1="29.6094" y2="29.6094"/><text fill="#000000" font-family="sans-serif" font-size="14" font-weight="bold" lengthAdjust="spacing" textLength="299" x="20" y="22.5332">fr.unice.polytech.citadelle.game_character</text><!--MD5=[92394e1b71fa30cda6a7ab593849def7]
class fr.unice.polytech.citadelle.game_character.Merchant--><rect codeLine="1" fill="#FEFECE" filter="url(#fwjby7axyy6rm)" height="75.6719" id="fr.unice.polytech.citadelle.game_character.Merchant" style="stroke:#A80036;stroke-width:1.5;" width="404" x="32" y="343.5"/><ellipse cx="204.75" cy="359.5" fill="#ADD1B2" rx="11" ry="11" style="stroke:#A80036;stroke-width:1.0;"/><path d="M206.75,356 Q206.9531,355.5 207.1875,355.25 Q207.4219,355 207.6875,355 Q208.1563,355 208.4531,355.2813 Q208.75,355.5625 208.75,356.2188 L208.75,357.7813 Q208.75,358.4375 208.4688,358.7188 Q208.1875,359 207.75,359 Q207.3594,359 207.1094,358.8281 Q206.8594,358.6563 206.75,358.2031 Q206.7031,357.8906 206.5313,357.7188 Q206.2188,357.3906 205.6563,357.2031 Q205.0938,357 204.5313,357 Q203.8281,357 203.2344,357.2813 Q202.6563,357.5625 202.2031,358.1875 Q201.75,358.8125 201.75,359.6719 L201.75,360.5938 Q201.75,361.625 202.5938,362.3125 Q203.4375,363 204.9375,363 Q205.8281,363 206.4531,362.7969 Q206.8125,362.6875 207.2188,362.3281 Q207.4844,362.125 207.625,362.0625 Q207.7656,362 207.9375,362 Q208.2656,362 208.5,362.2656 Q208.75,362.5156 208.75,362.875 Q208.75,363.2188 208.4063,363.625 Q207.9063,364.2188 207.1094,364.5469 Q206.0625,365 204.7813,365 Q203.2813,365 202.0781,364.4063 Q201.1094,363.9375 200.4219,362.9219 Q199.75,361.9063 199.75,360.7031 L199.75,359.6094 Q199.75,358.3594 200.3438,357.2656 Q200.9531,356.1719 202,355.5938 Q203.0625,355 204.25,355 Q204.9688,355 205.5938,355.25 Q206.2188,355.5 206.75,356 Z " fill="#000000"/><text fill="#000000" font-family="sans-serif" font-size="12" lengthAdjust="spacing" textLength="50" x="225.25" y="364.4102">Merchant</text><line style="stroke:#A80036;stroke-width:1.5;" x1="33" x2="435" y1="375.5" y2="375.5"/><line style="stroke:#A80036;stroke-width:1.5;" x1="33" x2="435" y1="383.5" y2="383.5"/><ellipse cx="43" cy="394.5" fill="#84BE84" rx="3" ry="3" style="stroke:#038048;stroke-width:1.0;"/><text fill="#000000" font-family="sans-serif" font-size="11" lengthAdjust="spacing" textLength="100" x="52" y="398.9189">«Create» Merchant()</text><ellipse cx="43" cy="408.3359" fill="#84BE84" rx="3" ry="3" style="stroke:#038048;stroke-width:1.0;"/><text fill="#000000" font-family="sans-serif" font-size="11" lengthAdjust="spacing" textLength="378" x="52" y="412.7549">void spellOfTurn(Behaviour,LinkedHashMap&lt;Character,Optional&lt;Behaviour&gt;&gt;)</text><!--MD5=[49392824c8c9046be6bb1536c074686e]
class fr.unice.polytech.citadelle.game_character.Assassin--><rect codeLine="5" fill="#FEFECE" filter="url(#fwjby7axyy6rm)" height="75.6719" id="fr.unice.polytech.citadelle.game_character.Assassin" style="stroke:#A80036;stroke-width:1.5;" width="404" x="471" y="343.5"/><ellipse cx="642.75" cy="359.5" fill="#ADD1B2" rx="11" ry="11" style="stroke:#A80036;stroke-width:1.0;"/><path d="M644.75,356 Q644.9531,355.5 645.1875,355.25 Q645.4219,355 645.6875,355 Q646.1563,355 646.4531,355.2813 Q646.75,355.5625 646.75,356.2188 L646.75,357.7813 Q646.75,358.4375 646.4688,358.7188 Q646.1875,359 645.75,359 Q645.3594,359 645.1094,358.8281 Q644.8594,358.6563 644.75,358.2031 Q644.7031,357.8906 644.5313,357.7188 Q644.2188,357.3906 643.6563,357.2031 Q643.0938,357 642.5313,357 Q641.8281,357 641.2344,357.2813 Q640.6563,357.5625 640.2031,358.1875 Q639.75,358.8125 639.75,359.6719 L639.75,360.5938 Q639.75,361.625 640.5938,362.3125 Q641.4375,363 642.9375,363 Q643.8281,363 644.4531,362.7969 Q644.8125,362.6875 645.2188,362.3281 Q645.4844,362.125 645.625,362.0625 Q645.7656,362 645.9375,362 Q646.2656,362 646.5,362.2656 Q646.75,362.5156 646.75,362.875 Q646.75,363.2188 646.4063,363.625 Q645.9063,364.2188 645.1094,364.5469 Q644.0625,365 642.7813,365 Q641.2813,365 640.0781,364.4063 Q639.1094,363.9375 638.4219,362.9219 Q637.75,361.9063 637.75,360.7031 L637.75,359.6094 Q637.75,358.3594 638.3438,357.2656 Q638.9531,356.1719 640,355.5938 Q641.0625,355 642.25,355 Q642.9688,355 643.5938,355.25 Q644.2188,355.5 644.75,356 Z " fill="#000000"/><text fill="#000000" font-family="sans-serif" font-size="12" lengthAdjust="spacing" textLength="52" x="663.25" y="364.4102">Assassin</text><line style="stroke:#A80036;stroke-width:1.5;" x1="472" x2="874" y1="375.5" y2="375.5"/><line style="stroke:#A80036;stroke-width:1.5;" x1="472" x2="874" y1="383.5" y2="383.5"/><ellipse cx="482" cy="394.5" fill="#84BE84" rx="3" ry="3" style="stroke:#038048;stroke-width:1.0;"/><text fill="#000000" font-family="sans-serif" font-size="11" lengthAdjust="spacing" textLength="101" x="491" y="398.9189">«Create» Assassin()</text><ellipse cx="482" cy="408.3359" fill="#84BE84" rx="3" ry="3" style="stroke:#038048;stroke-width:1.0;"/><text fill="#000000" font-family="sans-serif" font-size="11" lengthAdjust="spacing" textLength="378" x="491" y="412.7549">void spellOfTurn(Behaviour,LinkedHashMap&lt;Character,Optional&lt;Behaviour&gt;&gt;)</text><!--MD5=[5ae97d7a11548f06fa5a08694ed93a58]
class fr.unice.polytech.citadelle.game_character.Magician--><rect codeLine="9" fill="#FEFECE" filter="url(#fwjby7axyy6rm)" height="103.3438" id="fr.unice.polytech.citadelle.game_character.Magician" style="stroke:#A80036;stroke-width:1.5;" width="404" x="910" y="330"/><ellipse cx="1083.25" cy="346" fill="#ADD1B2" rx="11" ry="11" style="stroke:#A80036;stroke-width:1.0;"/><path d="M1085.25,342.5 Q1085.4531,342 1085.6875,341.75 Q1085.9219,341.5 1086.1875,341.5 Q1086.6563,341.5 1086.9531,341.7813 Q1087.25,342.0625 1087.25,342.7188 L1087.25,344.2813 Q1087.25,344.9375 1086.9688,345.2188 Q1086.6875,345.5 1086.25,345.5 Q1085.8594,345.5 1085.6094,345.3281 Q1085.3594,345.1563 1085.25,344.7031 Q1085.2031,344.3906 1085.0313,344.2188 Q1084.7188,343.8906 1084.1563,343.7031 Q1083.5938,343.5 1083.0313,343.5 Q1082.3281,343.5 1081.7344,343.7813 Q1081.1563,344.0625 1080.7031,344.6875 Q1080.25,345.3125 1080.25,346.1719 L1080.25,347.0938 Q1080.25,348.125 1081.0938,348.8125 Q1081.9375,349.5 1083.4375,349.5 Q1084.3281,349.5 1084.9531,349.2969 Q1085.3125,349.1875 1085.7188,348.8281 Q1085.9844,348.625 1086.125,348.5625 Q1086.2656,348.5 1086.4375,348.5 Q1086.7656,348.5 1087,348.7656 Q1087.25,349.0156 1087.25,349.375 Q1087.25,349.7188 1086.9063,350.125 Q1086.4063,350.7188 1085.6094,351.0469 Q1084.5625,351.5 1083.2813,351.5 Q1081.7813,351.5 1080.5781,350.9063 Q1079.6094,350.4375 1078.9219,349.4219 Q1078.25,348.4063 1078.25,347.2031 L1078.25,346.1094 Q1078.25,344.8594 1078.8438,343.7656 Q1079.4531,342.6719 1080.5,342.0938 Q1081.5625,341.5 1082.75,341.5 Q1083.4688,341.5 1084.0938,341.75 Q1084.7188,342 1085.25,342.5 Z " fill="#000000"/><text fill="#000000" font-family="sans-serif" font-size="12" lengthAdjust="spacing" textLength="49" x="1103.75" y="350.9102">Magician</text><line style="stroke:#A80036;stroke-width:1.5;" x1="911" x2="1313" y1="362" y2="362"/><line style="stroke:#A80036;stroke-width:1.5;" x1="911" x2="1313" y1="370" y2="370"/><ellipse cx="921" cy="381" fill="#84BE84" rx="3" ry="3" style="stroke:#038048;stroke-width:1.0;"/><text fill="#000000" font-family="sans-serif" font-size="11" lengthAdjust="spacing" textLength="97" x="930" y="385.4189">«Create» Magician()</text><ellipse cx="921" cy="394.8359" fill="#84BE84" rx="3" ry="3" style="stroke:#038048;stroke-width:1.0;"/><text fill="#000000" font-family="sans-serif" font-size="11" lengthAdjust="spacing" textLength="226" x="930" y="399.2549">void swapCardsWithBot(Behaviour,Behaviour)</text><ellipse cx="921" cy="408.6719" fill="#84BE84" rx="3" ry="3" style="stroke:#038048;stroke-width:1.0;"/><text fill="#000000" font-family="sans-serif" font-size="11" lengthAdjust="spacing" textLength="345" x="930" y="413.0908">ArrayList&lt;District&gt; swapCardsWithDeck(Behaviour,ArrayList&lt;District&gt;)</text><ellipse cx="921" cy="422.5078" fill="#84BE84" rx="3" ry="3" style="stroke:#038048;stroke-width:1.0;"/><text fill="#000000" font-family="sans-serif" font-size="11" lengthAdjust="spacing" textLength="378" x="930" y="426.9268">void spellOfTurn(Behaviour,LinkedHashMap&lt;Character,Optional&lt;Behaviour&gt;&gt;)</text><!--MD5=[352cce2c1c231a60e736d7eb4c379ca6]
class fr.unice.polytech.citadelle.game_character.Warlord--><rect codeLine="15" fill="#FEFECE" filter="url(#fwjby7axyy6rm)" height="89.5078" id="fr.unice.polytech.citadelle.game_character.Warlord" style="stroke:#A80036;stroke-width:1.5;" width="404" x="1349" y="336.5"/><ellipse cx="1525.25" cy="352.5" fill="#ADD1B2" rx="11" ry="11" style="stroke:#A80036;stroke-width:1.0;"/><path d="M1527.25,349 Q1527.4531,348.5 1527.6875,348.25 Q1527.9219,348 1528.1875,348 Q1528.6563,348 1528.9531,348.2813 Q1529.25,348.5625 1529.25,349.2188 L1529.25,350.7813 Q1529.25,351.4375 1528.9688,351.7188 Q1528.6875,352 1528.25,352 Q1527.8594,352 1527.6094,351.8281 Q1527.3594,351.6563 1527.25,351.2031 Q1527.2031,350.8906 1527.0313,350.7188 Q1526.7188,350.3906 1526.1563,350.2031 Q1525.5938,350 1525.0313,350 Q1524.3281,350 1523.7344,350.2813 Q1523.1563,350.5625 1522.7031,351.1875 Q1522.25,351.8125 1522.25,352.6719 L1522.25,353.5938 Q1522.25,354.625 1523.0938,355.3125 Q1523.9375,356 1525.4375,356 Q1526.3281,356 1526.9531,355.7969 Q1527.3125,355.6875 1527.7188,355.3281 Q1527.9844,355.125 1528.125,355.0625 Q1528.2656,355 1528.4375,355 Q1528.7656,355 1529,355.2656 Q1529.25,355.5156 1529.25,355.875 Q1529.25,356.2188 1528.9063,356.625 Q1528.4063,357.2188 1527.6094,357.5469 Q1526.5625,358 1525.2813,358 Q1523.7813,358 1522.5781,357.4063 Q1521.6094,356.9375 1520.9219,355.9219 Q1520.25,354.9063 1520.25,353.7031 L1520.25,352.6094 Q1520.25,351.3594 1520.8438,350.2656 Q1521.4531,349.1719 1522.5,348.5938 Q1523.5625,348 1524.75,348 Q1525.4688,348 1526.0938,348.25 Q1526.7188,348.5 1527.25,349 Z " fill="#000000"/><text fill="#000000" font-family="sans-serif" font-size="12" lengthAdjust="spacing" textLength="43" x="1545.75" y="357.4102">Warlord</text><line style="stroke:#A80036;stroke-width:1.5;" x1="1350" x2="1752" y1="368.5" y2="368.5"/><line style="stroke:#A80036;stroke-width:1.5;" x1="1350" x2="1752" y1="376.5" y2="376.5"/><ellipse cx="1360" cy="387.5" fill="#84BE84" rx="3" ry="3" style="stroke:#038048;stroke-width:1.0;"/><text fill="#000000" font-family="sans-serif" font-size="11" lengthAdjust="spacing" textLength="93" x="1369" y="391.9189">«Create» Warlord()</text><rect fill="#F24D5C" height="6" style="stroke:#C82930;stroke-width:1.0;" width="6" x="1357" y="398.3359"/><text fill="#000000" font-family="sans-serif" font-size="11" lengthAdjust="spacing" textLength="200" x="1369" y="405.7549">void destroyDistrict(Player,District,Player)</text><ellipse cx="1360" cy="415.1719" fill="#84BE84" rx="3" ry="3" style="stroke:#038048;stroke-width:1.0;"/><text fill="#000000" font-family="sans-serif" font-size="11" lengthAdjust="spacing" textLength="378" x="1369" y="419.5908">void spellOfTurn(Behaviour,LinkedHashMap&lt;Character,Optional&lt;Behaviour&gt;&gt;)</text><!--MD5=[ac05f2061aa51fb9e101b0cd0a5c04d1]
class fr.unice.polytech.citadelle.game_character.Bishop--><rect codeLine="20" fill="#FEFECE" filter="url(#fwjby7axyy6rm)" height="75.6719" id="fr.unice.polytech.citadelle.game_character.Bishop" style="stroke:#A80036;stroke-width:1.5;" width="404" x="1788" y="343.5"/><ellipse cx="1966.25" cy="359.5" fill="#ADD1B2" rx="11" ry="11" style="stroke:#A80036;stroke-width:1.0;"/><path d="M1968.25,356 Q1968.4531,355.5 1968.6875,355.25 Q1968.9219,355 1969.1875,355 Q1969.6563,355 1969.9531,355.2813 Q1970.25,355.5625 1970.25,356.2188 L1970.25,357.7813 Q1970.25,358.4375 1969.9688,358.7188 Q1969.6875,359 1969.25,359 Q1968.8594,359 1968.6094,358.8281 Q1968.3594,358.6563 1968.25,358.2031 Q1968.2031,357.8906 1968.0313,357.7188 Q1967.7188,357.3906 1967.1563,357.2031 Q1966.5938,357 1966.0313,357 Q1965.3281,357 1964.7344,357.2813 Q1964.1563,357.5625 1963.7031,358.1875 Q1963.25,358.8125 1963.25,359.6719 L1963.25,360.5938 Q1963.25,361.625 1964.0938,362.3125 Q1964.9375,363 1966.4375,363 Q1967.3281,363 1967.9531,362.7969 Q1968.3125,362.6875 1968.7188,362.3281 Q1968.9844,362.125 1969.125,362.0625 Q1969.2656,362 1969.4375,362 Q1969.7656,362 1970,362.2656 Q1970.25,362.5156 1970.25,362.875 Q1970.25,363.2188 1969.9063,363.625 Q1969.4063,364.2188 1968.6094,364.5469 Q1967.5625,365 1966.2813,365 Q1964.7813,365 1963.5781,364.4063 Q1962.6094,363.9375 1961.9219,362.9219 Q1961.25,361.9063 1961.25,360.7031 L1961.25,359.6094 Q1961.25,358.3594 1961.8438,357.2656 Q1962.4531,356.1719 1963.5,355.5938 Q1964.5625,355 1965.75,355 Q1966.4688,355 1967.0938,355.25 Q1967.7188,355.5 1968.25,356 Z " fill="#000000"/><text fill="#000000" font-family="sans-serif" font-size="12" lengthAdjust="spacing" textLength="39" x="1986.75" y="364.4102">Bishop</text><line style="stroke:#A80036;stroke-width:1.5;" x1="1789" x2="2191" y1="375.5" y2="375.5"/><line style="stroke:#A80036;stroke-width:1.5;" x1="1789" x2="2191" y1="383.5" y2="383.5"/><ellipse cx="1799" cy="394.5" fill="#84BE84" rx="3" ry="3" style="stroke:#038048;stroke-width:1.0;"/><text fill="#000000" font-family="sans-serif" font-size="11" lengthAdjust="spacing" textLength="88" x="1808" y="398.9189">«Create» Bishop()</text><ellipse cx="1799" cy="408.3359" fill="#84BE84" rx="3" ry="3" style="stroke:#038048;stroke-width:1.0;"/><text fill="#000000" font-family="sans-serif" font-size="11" lengthAdjust="spacing" textLength="378" x="1808" y="412.7549">void spellOfTurn(Behaviour,LinkedHashMap&lt;Character,Optional&lt;Behaviour&gt;&gt;)</text><!--MD5=[efaf42ba41b3b561bd48e72dfca6a61d]
class fr.unice.polytech.citadelle.game_character.Character--><rect codeLine="24" fill="#FEFECE" filter="url(#fwjby7axyy6rm)" height="227.8672" id="fr.unice.polytech.citadelle.game_character.Character" style="stroke:#A80036;stroke-width:1.5;" width="404" x="1568" y="42"/><ellipse cx="1738.75" cy="58" fill="#ADD1B2" rx="11" ry="11" style="stroke:#A80036;stroke-width:1.0;"/><path d="M1740.75,54.5 Q1740.9531,54 1741.1875,53.75 Q1741.4219,53.5 1741.6875,53.5 Q1742.1563,53.5 1742.4531,53.7813 Q1742.75,54.0625 1742.75,54.7188 L1742.75,56.2813 Q1742.75,56.9375 1742.4688,57.2188 Q1742.1875,57.5 1741.75,57.5 Q1741.3594,57.5 1741.1094,57.3281 Q1740.8594,57.1563 1740.75,56.7031 Q1740.7031,56.3906 1740.5313,56.2188 Q1740.2188,55.8906 1739.6563,55.7031 Q1739.0938,55.5 1738.5313,55.5 Q1737.8281,55.5 1737.2344,55.7813 Q1736.6563,56.0625 1736.2031,56.6875 Q1735.75,57.3125 1735.75,58.1719 L1735.75,59.0938 Q1735.75,60.125 1736.5938,60.8125 Q1737.4375,61.5 1738.9375,61.5 Q1739.8281,61.5 1740.4531,61.2969 Q1740.8125,61.1875 1741.2188,60.8281 Q1741.4844,60.625 1741.625,60.5625 Q1741.7656,60.5 1741.9375,60.5 Q1742.2656,60.5 1742.5,60.7656 Q1742.75,61.0156 1742.75,61.375 Q1742.75,61.7188 1742.4063,62.125 Q1741.9063,62.7188 1741.1094,63.0469 Q1740.0625,63.5 1738.7813,63.5 Q1737.2813,63.5 1736.0781,62.9063 Q1735.1094,62.4375 1734.4219,61.4219 Q1733.75,60.4063 1733.75,59.2031 L1733.75,58.1094 Q1733.75,56.8594 1734.3438,55.7656 Q1734.9531,54.6719 1736,54.0938 Q1737.0625,53.5 1738.25,53.5 Q1738.9688,53.5 1739.5938,53.75 Q1740.2188,54 1740.75,54.5 Z " fill="#000000"/><text fill="#000000" font-family="sans-serif" font-size="12" lengthAdjust="spacing" textLength="54" x="1759.25" y="62.9102">Character</text><line style="stroke:#A80036;stroke-width:1.5;" x1="1569" x2="1971" y1="74" y2="74"/><rect fill="none" height="6" style="stroke:#C82930;stroke-width:1.0;" width="6" x="1576" y="82"/><text fill="#000000" font-family="sans-serif" font-size="11" lengthAdjust="spacing" textLength="57" x="1588" y="89.4189">String name</text><rect fill="none" height="6" style="stroke:#C82930;stroke-width:1.0;" width="6" x="1576" y="95.8359"/><text fill="#000000" font-family="sans-serif" font-size="11" lengthAdjust="spacing" textLength="40" x="1588" y="103.2549">int value</text><rect fill="none" height="6" style="stroke:#C82930;stroke-width:1.0;" width="6" x="1576" y="109.6719"/><text fill="#000000" font-family="sans-serif" font-size="11" lengthAdjust="spacing" textLength="120" x="1588" y="117.0908">boolean characterIsAlive</text><line style="stroke:#A80036;stroke-width:1.5;" x1="1569" x2="1971" y1="123.5078" y2="123.5078"/><ellipse cx="1579" cy="134.5078" fill="#84BE84" rx="3" ry="3" style="stroke:#038048;stroke-width:1.0;"/><text fill="#000000" font-family="sans-serif" font-size="11" lengthAdjust="spacing" textLength="145" x="1588" y="138.9268">«Create» Character(String,int)</text><ellipse cx="1579" cy="148.3438" fill="#84BE84" rx="3" ry="3" style="stroke:#038048;stroke-width:1.0;"/><text fill="#000000" font-family="sans-serif" font-size="11" lengthAdjust="spacing" textLength="81" x="1588" y="152.7627">String getName()</text><ellipse cx="1579" cy="162.1797" fill="#84BE84" rx="3" ry="3" style="stroke:#038048;stroke-width:1.0;"/><text fill="#000000" font-family="sans-serif" font-size="11" lengthAdjust="spacing" textLength="65" x="1588" y="166.5986">int getValue()</text><ellipse cx="1579" cy="176.0156" fill="#84BE84" rx="3" ry="3" style="stroke:#038048;stroke-width:1.0;"/><text fill="#000000" font-family="sans-serif" font-size="11" lengthAdjust="spacing" textLength="155" x="1588" y="180.4346">int collectGold(Behaviour,String)</text><ellipse cx="1579" cy="189.8516" fill="#84BE84" rx="3" ry="3" style="stroke:#038048;stroke-width:1.0;"/><text fill="#000000" font-family="sans-serif" font-size="11" lengthAdjust="spacing" textLength="378" x="1588" y="194.2705">void spellOfTurn(Behaviour,LinkedHashMap&lt;Character,Optional&lt;Behaviour&gt;&gt;)</text><ellipse cx="1579" cy="203.6875" fill="#84BE84" rx="3" ry="3" style="stroke:#038048;stroke-width:1.0;"/><text fill="#000000" font-family="sans-serif" font-size="11" lengthAdjust="spacing" textLength="164" x="1588" y="208.1064">void setCharacterIsAlive(boolean)</text><ellipse cx="1579" cy="217.5234" fill="#84BE84" rx="3" ry="3" style="stroke:#038048;stroke-width:1.0;"/><text fill="#000000" font-family="sans-serif" font-size="11" lengthAdjust="spacing" textLength="137" x="1588" y="221.9424">boolean isCharacterIsAlive()</text><ellipse cx="1579" cy="231.3594" fill="#84BE84" rx="3" ry="3" style="stroke:#038048;stroke-width:1.0;"/><text fill="#000000" font-family="sans-serif" font-size="11" lengthAdjust="spacing" textLength="112" x="1588" y="235.7783">boolean equals(Object)</text><ellipse cx="1579" cy="245.1953" fill="#84BE84" rx="3" ry="3" style="stroke:#038048;stroke-width:1.0;"/><text fill="#000000" font-family="sans-serif" font-size="11" lengthAdjust="spacing" textLength="76" x="1588" y="249.6143">String toString()</text><polygon fill="#FFFF44" points="1579,254.0313,1583,258.0313,1579,262.0313,1575,258.0313" style="stroke:#B38D22;stroke-width:1.0;"/><text fill="#000000" font-family="sans-serif" font-size="11" lengthAdjust="spacing" textLength="261" x="1588" y="263.4502">void spellOfTurnDistrictFamily(Behaviour,String,String)</text><!--MD5=[4fcdebf9d312c24b6fbbfccc95547944]
class fr.unice.polytech.citadelle.game_character.Thief--><rect codeLine="39" fill="#FEFECE" filter="url(#fwjby7axyy6rm)" height="75.6719" id="fr.unice.polytech.citadelle.game_character.Thief" style="stroke:#A80036;stroke-width:1.5;" width="404" x="2227" y="343.5"/><ellipse cx="2411.25" cy="359.5" fill="#ADD1B2" rx="11" ry="11" style="stroke:#A80036;stroke-width:1.0;"/><path d="M2413.25,356 Q2413.4531,355.5 2413.6875,355.25 Q2413.9219,355 2414.1875,355 Q2414.6563,355 2414.9531,355.2813 Q2415.25,355.5625 2415.25,356.2188 L2415.25,357.7813 Q2415.25,358.4375 2414.9688,358.7188 Q2414.6875,359 2414.25,359 Q2413.8594,359 2413.6094,358.8281 Q2413.3594,358.6563 2413.25,358.2031 Q2413.2031,357.8906 2413.0313,357.7188 Q2412.7188,357.3906 2412.1563,357.2031 Q2411.5938,357 2411.0313,357 Q2410.3281,357 2409.7344,357.2813 Q2409.1563,357.5625 2408.7031,358.1875 Q2408.25,358.8125 2408.25,359.6719 L2408.25,360.5938 Q2408.25,361.625 2409.0938,362.3125 Q2409.9375,363 2411.4375,363 Q2412.3281,363 2412.9531,362.7969 Q2413.3125,362.6875 2413.7188,362.3281 Q2413.9844,362.125 2414.125,362.0625 Q2414.2656,362 2414.4375,362 Q2414.7656,362 2415,362.2656 Q2415.25,362.5156 2415.25,362.875 Q2415.25,363.2188 2414.9063,363.625 Q2414.4063,364.2188 2413.6094,364.5469 Q2412.5625,365 2411.2813,365 Q2409.7813,365 2408.5781,364.4063 Q2407.6094,363.9375 2406.9219,362.9219 Q2406.25,361.9063 2406.25,360.7031 L2406.25,359.6094 Q2406.25,358.3594 2406.8438,357.2656 Q2407.4531,356.1719 2408.5,355.5938 Q2409.5625,355 2410.75,355 Q2411.4688,355 2412.0938,355.25 Q2412.7188,355.5 2413.25,356 Z " fill="#000000"/><text fill="#000000" font-family="sans-serif" font-size="12" lengthAdjust="spacing" textLength="27" x="2431.75" y="364.4102">Thief</text><line style="stroke:#A80036;stroke-width:1.5;" x1="2228" x2="2630" y1="375.5" y2="375.5"/><line style="stroke:#A80036;stroke-width:1.5;" x1="2228" x2="2630" y1="383.5" y2="383.5"/><ellipse cx="2238" cy="394.5" fill="#84BE84" rx="3" ry="3" style="stroke:#038048;stroke-width:1.0;"/><text fill="#000000" font-family="sans-serif" font-size="11" lengthAdjust="spacing" textLength="79" x="2247" y="398.9189">«Create» Thief()</text><ellipse cx="2238" cy="408.3359" fill="#84BE84" rx="3" ry="3" style="stroke:#038048;stroke-width:1.0;"/><text fill="#000000" font-family="sans-serif" font-size="11" lengthAdjust="spacing" textLength="378" x="2247" y="412.7549">void spellOfTurn(Behaviour,LinkedHashMap&lt;Character,Optional&lt;Behaviour&gt;&gt;)</text><!--MD5=[054f5411da657fea394cac6cca80832f]
class fr.unice.polytech.citadelle.game_character.Architect--><rect codeLine="43" fill="#FEFECE" filter="url(#fwjby7axyy6rm)" height="75.6719" id="fr.unice.polytech.citadelle.game_character.Architect" style="stroke:#A80036;stroke-width:1.5;" width="404" x="2666" y="343.5"/><ellipse cx="2840.75" cy="359.5" fill="#ADD1B2" rx="11" ry="11" style="stroke:#A80036;stroke-width:1.0;"/><path d="M2842.75,356 Q2842.9531,355.5 2843.1875,355.25 Q2843.4219,355 2843.6875,355 Q2844.1563,355 2844.4531,355.2813 Q2844.75,355.5625 2844.75,356.2188 L2844.75,357.7813 Q2844.75,358.4375 2844.4688,358.7188 Q2844.1875,359 2843.75,359 Q2843.3594,359 2843.1094,358.8281 Q2842.8594,358.6563 2842.75,358.2031 Q2842.7031,357.8906 2842.5313,357.7188 Q2842.2188,357.3906 2841.6563,357.2031 Q2841.0938,357 2840.5313,357 Q2839.8281,357 2839.2344,357.2813 Q2838.6563,357.5625 2838.2031,358.1875 Q2837.75,358.8125 2837.75,359.6719 L2837.75,360.5938 Q2837.75,361.625 2838.5938,362.3125 Q2839.4375,363 2840.9375,363 Q2841.8281,363 2842.4531,362.7969 Q2842.8125,362.6875 2843.2188,362.3281 Q2843.4844,362.125 2843.625,362.0625 Q2843.7656,362 2843.9375,362 Q2844.2656,362 2844.5,362.2656 Q2844.75,362.5156 2844.75,362.875 Q2844.75,363.2188 2844.4063,363.625 Q2843.9063,364.2188 2843.1094,364.5469 Q2842.0625,365 2840.7813,365 Q2839.2813,365 2838.0781,364.4063 Q2837.1094,363.9375 2836.4219,362.9219 Q2835.75,361.9063 2835.75,360.7031 L2835.75,359.6094 Q2835.75,358.3594 2836.3438,357.2656 Q2836.9531,356.1719 2838,355.5938 Q2839.0625,355 2840.25,355 Q2840.9688,355 2841.5938,355.25 Q2842.2188,355.5 2842.75,356 Z " fill="#000000"/><text fill="#000000" font-family="sans-serif" font-size="12" lengthAdjust="spacing" textLength="46" x="2861.25" y="364.4102">Architect</text><line style="stroke:#A80036;stroke-width:1.5;" x1="2667" x2="3069" y1="375.5" y2="375.5"/><line style="stroke:#A80036;stroke-width:1.5;" x1="2667" x2="3069" y1="383.5" y2="383.5"/><ellipse cx="2677" cy="394.5" fill="#84BE84" rx="3" ry="3" style="stroke:#038048;stroke-width:1.0;"/><text fill="#000000" font-family="sans-serif" font-size="11" lengthAdjust="spacing" textLength="99" x="2686" y="398.9189">«Create» Architect()</text><ellipse cx="2677" cy="408.3359" fill="#84BE84" rx="3" ry="3" style="stroke:#038048;stroke-width:1.0;"/><text fill="#000000" font-family="sans-serif" font-size="11" lengthAdjust="spacing" textLength="378" x="2686" y="412.7549">void spellOfTurn(Behaviour,LinkedHashMap&lt;Character,Optional&lt;Behaviour&gt;&gt;)</text><!--MD5=[a4fc3913fd78d2b7575934f881d97f8d]
class fr.unice.polytech.citadelle.game_character.King--><rect codeLine="47" fill="#FEFECE" filter="url(#fwjby7axyy6rm)" height="75.6719" id="fr.unice.polytech.citadelle.game_character.King" style="stroke:#A80036;stroke-width:1.5;" width="404" x="3105" y="343.5"/><ellipse cx="3290.25" cy="359.5" fill="#ADD1B2" rx="11" ry="11" style="stroke:#A80036;stroke-width:1.0;"/><path d="M3292.25,356 Q3292.4531,355.5 3292.6875,355.25 Q3292.9219,355 3293.1875,355 Q3293.6563,355 3293.9531,355.2813 Q3294.25,355.5625 3294.25,356.2188 L3294.25,357.7813 Q3294.25,358.4375 3293.9688,358.7188 Q3293.6875,359 3293.25,359 Q3292.8594,359 3292.6094,358.8281 Q3292.3594,358.6563 3292.25,358.2031 Q3292.2031,357.8906 3292.0313,357.7188 Q3291.7188,357.3906 3291.1563,357.2031 Q3290.5938,357 3290.0313,357 Q3289.3281,357 3288.7344,357.2813 Q3288.1563,357.5625 3287.7031,358.1875 Q3287.25,358.8125 3287.25,359.6719 L3287.25,360.5938 Q3287.25,361.625 3288.0938,362.3125 Q3288.9375,363 3290.4375,363 Q3291.3281,363 3291.9531,362.7969 Q3292.3125,362.6875 3292.7188,362.3281 Q3292.9844,362.125 3293.125,362.0625 Q3293.2656,362 3293.4375,362 Q3293.7656,362 3294,362.2656 Q3294.25,362.5156 3294.25,362.875 Q3294.25,363.2188 3293.9063,363.625 Q3293.4063,364.2188 3292.6094,364.5469 Q3291.5625,365 3290.2813,365 Q3288.7813,365 3287.5781,364.4063 Q3286.6094,363.9375 3285.9219,362.9219 Q3285.25,361.9063 3285.25,360.7031 L3285.25,359.6094 Q3285.25,358.3594 3285.8438,357.2656 Q3286.4531,356.1719 3287.5,355.5938 Q3288.5625,355 3289.75,355 Q3290.4688,355 3291.0938,355.25 Q3291.7188,355.5 3292.25,356 Z " fill="#000000"/><text fill="#000000" font-family="sans-serif" font-size="12" lengthAdjust="spacing" textLength="25" x="3310.75" y="364.4102">King</text><line style="stroke:#A80036;stroke-width:1.5;" x1="3106" x2="3508" y1="375.5" y2="375.5"/><line style="stroke:#A80036;stroke-width:1.5;" x1="3106" x2="3508" y1="383.5" y2="383.5"/><ellipse cx="3116" cy="394.5" fill="#84BE84" rx="3" ry="3" style="stroke:#038048;stroke-width:1.0;"/><text fill="#000000" font-family="sans-serif" font-size="11" lengthAdjust="spacing" textLength="76" x="3125" y="398.9189">«Create» King()</text><ellipse cx="3116" cy="408.3359" fill="#84BE84" rx="3" ry="3" style="stroke:#038048;stroke-width:1.0;"/><text fill="#000000" font-family="sans-serif" font-size="11" lengthAdjust="spacing" textLength="378" x="3125" y="412.7549">void spellOfTurn(Behaviour,LinkedHashMap&lt;Character,Optional&lt;Behaviour&gt;&gt;)</text><!--MD5=[757f6c4432bb41695d12955a2d8b9080]
reverse link fr.unice.polytech.citadelle.game_character.Character to fr.unice.polytech.citadelle.game_character.Merchant--><path codeLine="53" d="M1547.74,179.7 C1285.28,208.02 836.11,261.19 454,330 C432.21,333.92 409.32,338.58 386.88,343.44 " fill="none" id="fr.unice.polytech.citadelle.game_character.Character-backto-fr.unice.polytech.citadelle.game_character.Merchant" style="stroke:#A80036;stroke-width:1.0;"/><polygon fill="none" points="1547.23,172.72,1567.86,177.54,1548.72,186.64,1547.23,172.72" style="stroke:#A80036;stroke-width:1.0;"/><!--MD5=[417c268050c6050cd51fe480adca3d2d]
reverse link fr.unice.polytech.citadelle.game_character.Character to fr.unice.polytech.citadelle.game_character.Assassin--><path codeLine="54" d="M1547.7,198.89 C1370.19,232.81 1115.25,282.58 893,330 C873.17,334.23 852.36,338.82 831.79,343.44 " fill="none" id="fr.unice.polytech.citadelle.game_character.Character-backto-fr.unice.polytech.citadelle.game_character.Assassin" style="stroke:#A80036;stroke-width:1.0;"/><polygon fill="none" points="1546.65,191.96,1567.61,195.09,1549.27,205.71,1546.65,191.96" style="stroke:#A80036;stroke-width:1.0;"/><!--MD5=[5f8317fb7e09165bf1e6498fe9e315c0]
reverse link fr.unice.polytech.citadelle.game_character.Character to fr.unice.polytech.citadelle.game_character.Magician--><path codeLine="55" d="M1548.59,232.21 C1453.84,264.39 1345.72,301.11 1260.78,329.96 " fill="none" id="fr.unice.polytech.citadelle.game_character.Character-backto-fr.unice.polytech.citadelle.game_character.Magician" style="stroke:#A80036;stroke-width:1.0;"/><polygon fill="none" points="1546.47,225.53,1567.66,225.73,1550.97,238.79,1546.47,225.53" style="stroke:#A80036;stroke-width:1.0;"/><!--MD5=[24c81cccab80937e8da9aedc7415640f]
reverse link fr.unice.polytech.citadelle.game_character.Character to fr.unice.polytech.citadelle.game_character.Warlord--><path codeLine="56" d="M1645.17,284.4 C1626.9,303.04 1609.21,321.1 1594.19,336.42 " fill="none" id="fr.unice.polytech.citadelle.game_character.Character-backto-fr.unice.polytech.citadelle.game_character.Warlord" style="stroke:#A80036;stroke-width:1.0;"/><polygon fill="none" points="1640.22,279.45,1659.22,270.06,1650.22,289.24,1640.22,279.45" style="stroke:#A80036;stroke-width:1.0;"/><!--MD5=[71197bba2c410c0f1109af669619e050]
reverse link fr.unice.polytech.citadelle.game_character.Character to fr.unice.polytech.citadelle.game_character.Bishop--><path codeLine="57" d="M1895.57,284.56 C1916.61,305.94 1936.87,326.53 1953.2,343.11 " fill="none" id="fr.unice.polytech.citadelle.game_character.Character-backto-fr.unice.polytech.citadelle.game_character.Bishop" style="stroke:#A80036;stroke-width:1.0;"/><polygon fill="none" points="1890.33,289.22,1881.29,270.06,1900.31,279.4,1890.33,289.22" style="stroke:#A80036;stroke-width:1.0;"/><!--MD5=[7f6304183a33e8f0bcd177f5630f77be]
reverse link fr.unice.polytech.citadelle.game_character.Character to fr.unice.polytech.citadelle.game_character.Thief--><path codeLine="58" d="M1991.18,232.01 C2101.69,269.49 2230.47,313.17 2319.63,343.41 " fill="none" id="fr.unice.polytech.citadelle.game_character.Character-backto-fr.unice.polytech.citadelle.game_character.Thief" style="stroke:#A80036;stroke-width:1.0;"/><polygon fill="none" points="1988.89,238.63,1972.2,225.58,1993.39,225.37,1988.89,238.63" style="stroke:#A80036;stroke-width:1.0;"/><!--MD5=[74c9d99432de4e183dfe80e8c7b241be]
reverse link fr.unice.polytech.citadelle.game_character.Character to fr.unice.polytech.citadelle.game_character.Architect--><path codeLine="59" d="M1992.11,198.66 C2170.07,232.53 2425.98,282.35 2649,330 C2668.84,334.24 2689.66,338.84 2710.24,343.48 " fill="none" id="fr.unice.polytech.citadelle.game_character.Character-backto-fr.unice.polytech.citadelle.game_character.Architect" style="stroke:#A80036;stroke-width:1.0;"/><polygon fill="none" points="1990.77,205.53,1972.43,194.92,1993.39,191.78,1990.77,205.53" style="stroke:#A80036;stroke-width:1.0;"/><!--MD5=[f8f04e975ef2c1eb5447ae0b7807adc5]
reverse link fr.unice.polytech.citadelle.game_character.Character to fr.unice.polytech.citadelle.game_character.King--><path codeLine="60" d="M1992.33,179.58 C2255.15,207.8 2705.21,260.91 3088,330 C3109.79,333.93 3132.68,338.6 3155.12,343.49 " fill="none" id="fr.unice.polytech.citadelle.game_character.Character-backto-fr.unice.polytech.citadelle.game_character.King" style="stroke:#A80036;stroke-width:1.0;"/><polygon fill="none" points="1991.32,186.52,1972.18,177.43,1992.81,172.6,1991.32,186.52" style="stroke:#A80036;stroke-width:1.0;"/><!--MD5=[b5a54e24871872fdaef54489357d2914]
@startuml
class fr.unice.polytech.citadelle.game_character.Merchant {
+ <<Create>> Merchant()
+ void spellOfTurn(Behaviour,LinkedHashMap<Character,Optional<Behaviour>>)
}
class fr.unice.polytech.citadelle.game_character.Assassin {
+ <<Create>> Assassin()
+ void spellOfTurn(Behaviour,LinkedHashMap<Character,Optional<Behaviour>>)
}
class fr.unice.polytech.citadelle.game_character.Magician {
+ <<Create>> Magician()
+ void swapCardsWithBot(Behaviour,Behaviour)
+ ArrayList<District> swapCardsWithDeck(Behaviour,ArrayList<District>)
+ void spellOfTurn(Behaviour,LinkedHashMap<Character,Optional<Behaviour>>)
}
class fr.unice.polytech.citadelle.game_character.Warlord {
+ <<Create>> Warlord()
- void destroyDistrict(Player,District,Player)
+ void spellOfTurn(Behaviour,LinkedHashMap<Character,Optional<Behaviour>>)
}
class fr.unice.polytech.citadelle.game_character.Bishop {
+ <<Create>> Bishop()
+ void spellOfTurn(Behaviour,LinkedHashMap<Character,Optional<Behaviour>>)
}
class fr.unice.polytech.citadelle.game_character.Character {
- String name
- int value
- boolean characterIsAlive
+ <<Create>> Character(String,int)
+ String getName()
+ int getValue()
+ int collectGold(Behaviour,String)
+ void spellOfTurn(Behaviour,LinkedHashMap<Character,Optional<Behaviour>>)
+ void setCharacterIsAlive(boolean)
+ boolean isCharacterIsAlive()
+ boolean equals(Object)
+ String toString()
# void spellOfTurnDistrictFamily(Behaviour,String,String)
}
class fr.unice.polytech.citadelle.game_character.Thief {
+ <<Create>> Thief()
+ void spellOfTurn(Behaviour,LinkedHashMap<Character,Optional<Behaviour>>)
}
class fr.unice.polytech.citadelle.game_character.Architect {
+ <<Create>> Architect()
+ void spellOfTurn(Behaviour,LinkedHashMap<Character,Optional<Behaviour>>)
}
class fr.unice.polytech.citadelle.game_character.King {
+ <<Create>> King()
+ void spellOfTurn(Behaviour,LinkedHashMap<Character,Optional<Behaviour>>)
}


fr.unice.polytech.citadelle.game_character.Character <|- - fr.unice.polytech.citadelle.game_character.Merchant
fr.unice.polytech.citadelle.game_character.Character <|- - fr.unice.polytech.citadelle.game_character.Assassin
fr.unice.polytech.citadelle.game_character.Character <|- - fr.unice.polytech.citadelle.game_character.Magician
fr.unice.polytech.citadelle.game_character.Character <|- - fr.unice.polytech.citadelle.game_character.Warlord
fr.unice.polytech.citadelle.game_character.Character <|- - fr.unice.polytech.citadelle.game_character.Bishop
fr.unice.polytech.citadelle.game_character.Character <|- - fr.unice.polytech.citadelle.game_character.Thief
fr.unice.polytech.citadelle.game_character.Character <|- - fr.unice.polytech.citadelle.game_character.Architect
fr.unice.polytech.citadelle.game_character.Character <|- - fr.unice.polytech.citadelle.game_character.King
@enduml

PlantUML version 1.2021.16(Wed Dec 08 18:25:22 CET 2021)
(GPL source distribution)
Java Runtime: OpenJDK Runtime Environment
JVM: OpenJDK 64-Bit Server VM
Default Encoding: Cp1252
Language: fr
Country: FR
--></g></svg>