<?xml version="1.0" encoding="UTF-8" standalone="no"?><svg xmlns="http://www.w3.org/2000/svg" xmlns:xlink="http://www.w3.org/1999/xlink" contentScriptType="application/ecmascript" contentStyleType="text/css" height="292px" preserveAspectRatio="none" style="width:2765px;height:292px;background:#FFFFFF;" version="1.1" viewBox="0 0 2765 292" width="2765px" zoomAndPan="magnify"><defs><filter height="300%" id="f1citmd6v9bgg4" width="300%" x="-1" y="-1"><feGaussianBlur result="blurOut" stdDeviation="2.0"/><feColorMatrix in="blurOut" result="blurOut2" type="matrix" values="0 0 0 0 0 0 0 0 0 0 0 0 0 0 0 0 0 0 .4 0"/><feOffset dx="4.0" dy="4.0" in="blurOut2" result="blurOut3"/><feBlend in="SourceGraphic" in2="blurOut3" mode="normal"/></filter></defs><g><!--MD5=[7ee4fc364039223c136b0fc3ed79c582]
cluster fr.unice.polytech.citadelle.game.purple_districts--><polygon fill="#FFFFFF" filter="url(#f1citmd6v9bgg4)" points="16,130,361,130,368,153.6094,2748,153.6094,2748,285,16,285,16,130" style="stroke:#000000;stroke-width:1.5;"/><line style="stroke:#000000;stroke-width:1.5;" x1="16" x2="368" y1="153.6094" y2="153.6094"/><text fill="#000000" font-family="sans-serif" font-size="14" font-weight="bold" lengthAdjust="spacing" textLength="339" x="20" y="146.5332">fr.unice.polytech.citadelle.game.purple_districts</text><!--MD5=[272a3c5ec2167692ecb2e64880b401bf]
cluster fr.unice.polytech.citadelle.game--><polygon fill="#FFFFFF" filter="url(#f1citmd6v9bgg4)" points="1026,6,1256,6,1263,29.6094,1537,29.6094,1537,106,1026,106,1026,6" style="stroke:#000000;stroke-width:1.5;"/><line style="stroke:#000000;stroke-width:1.5;" x1="1026" x2="1263" y1="29.6094" y2="29.6094"/><text fill="#000000" font-family="sans-serif" font-size="14" font-weight="bold" lengthAdjust="spacing" textLength="224" x="1030" y="22.5332">fr.unice.polytech.citadelle.game</text><!--MD5=[a6db47c0ccacdb33947ccc102eef718e]
class fr.unice.polytech.citadelle.game.purple_districts.Smithy--><rect codeLine="1" fill="#FEFECE" filter="url(#f1citmd6v9bgg4)" height="61.8359" id="fr.unice.polytech.citadelle.game.purple_districts.Smithy" style="stroke:#A80036;stroke-width:1.5;" width="217" x="2514.5" y="186.5"/><ellipse cx="2600.25" cy="202.5" fill="#ADD1B2" rx="11" ry="11" style="stroke:#A80036;stroke-width:1.0;"/><path d="M2602.25,199 Q2602.4531,198.5 2602.6875,198.25 Q2602.9219,198 2603.1875,198 Q2603.6563,198 2603.9531,198.2813 Q2604.25,198.5625 2604.25,199.2188 L2604.25,200.7813 Q2604.25,201.4375 2603.9688,201.7188 Q2603.6875,202 2603.25,202 Q2602.8594,202 2602.6094,201.8281 Q2602.3594,201.6563 2602.25,201.2031 Q2602.2031,200.8906 2602.0313,200.7188 Q2601.7188,200.3906 2601.1563,200.2031 Q2600.5938,200 2600.0313,200 Q2599.3281,200 2598.7344,200.2813 Q2598.1563,200.5625 2597.7031,201.1875 Q2597.25,201.8125 2597.25,202.6719 L2597.25,203.5938 Q2597.25,204.625 2598.0938,205.3125 Q2598.9375,206 2600.4375,206 Q2601.3281,206 2601.9531,205.7969 Q2602.3125,205.6875 2602.7188,205.3281 Q2602.9844,205.125 2603.125,205.0625 Q2603.2656,205 2603.4375,205 Q2603.7656,205 2604,205.2656 Q2604.25,205.5156 2604.25,205.875 Q2604.25,206.2188 2603.9063,206.625 Q2603.4063,207.2188 2602.6094,207.5469 Q2601.5625,208 2600.2813,208 Q2598.7813,208 2597.5781,207.4063 Q2596.6094,206.9375 2595.9219,205.9219 Q2595.25,204.9063 2595.25,203.7031 L2595.25,202.6094 Q2595.25,201.3594 2595.8438,200.2656 Q2596.4531,199.1719 2597.5,198.5938 Q2598.5625,198 2599.75,198 Q2600.4688,198 2601.0938,198.25 Q2601.7188,198.5 2602.25,199 Z " fill="#000000"/><text fill="#000000" font-family="sans-serif" font-size="12" lengthAdjust="spacing" textLength="37" x="2620.75" y="207.4102">Smithy</text><line style="stroke:#A80036;stroke-width:1.5;" x1="2515.5" x2="2730.5" y1="218.5" y2="218.5"/><line style="stroke:#A80036;stroke-width:1.5;" x1="2515.5" x2="2730.5" y1="226.5" y2="226.5"/><ellipse cx="2525.5" cy="237.5" fill="#84BE84" rx="3" ry="3" style="stroke:#038048;stroke-width:1.0;"/><text fill="#000000" font-family="sans-serif" font-size="11" lengthAdjust="spacing" textLength="191" x="2534.5" y="241.9189">«Create» Smithy(String,int,String,String)</text><!--MD5=[dd995967728baf6a035952953639b5b1]
class fr.unice.polytech.citadelle.game.purple_districts.Observatory--><rect codeLine="4" fill="#FEFECE" filter="url(#f1citmd6v9bgg4)" height="61.8359" id="fr.unice.polytech.citadelle.game.purple_districts.Observatory" style="stroke:#A80036;stroke-width:1.5;" width="246" x="2233" y="186.5"/><ellipse cx="2319.25" cy="202.5" fill="#ADD1B2" rx="11" ry="11" style="stroke:#A80036;stroke-width:1.0;"/><path d="M2321.25,199 Q2321.4531,198.5 2321.6875,198.25 Q2321.9219,198 2322.1875,198 Q2322.6563,198 2322.9531,198.2813 Q2323.25,198.5625 2323.25,199.2188 L2323.25,200.7813 Q2323.25,201.4375 2322.9688,201.7188 Q2322.6875,202 2322.25,202 Q2321.8594,202 2321.6094,201.8281 Q2321.3594,201.6563 2321.25,201.2031 Q2321.2031,200.8906 2321.0313,200.7188 Q2320.7188,200.3906 2320.1563,200.2031 Q2319.5938,200 2319.0313,200 Q2318.3281,200 2317.7344,200.2813 Q2317.1563,200.5625 2316.7031,201.1875 Q2316.25,201.8125 2316.25,202.6719 L2316.25,203.5938 Q2316.25,204.625 2317.0938,205.3125 Q2317.9375,206 2319.4375,206 Q2320.3281,206 2320.9531,205.7969 Q2321.3125,205.6875 2321.7188,205.3281 Q2321.9844,205.125 2322.125,205.0625 Q2322.2656,205 2322.4375,205 Q2322.7656,205 2323,205.2656 Q2323.25,205.5156 2323.25,205.875 Q2323.25,206.2188 2322.9063,206.625 Q2322.4063,207.2188 2321.6094,207.5469 Q2320.5625,208 2319.2813,208 Q2317.7813,208 2316.5781,207.4063 Q2315.6094,206.9375 2314.9219,205.9219 Q2314.25,204.9063 2314.25,203.7031 L2314.25,202.6094 Q2314.25,201.3594 2314.8438,200.2656 Q2315.4531,199.1719 2316.5,198.5938 Q2317.5625,198 2318.75,198 Q2319.4688,198 2320.0938,198.25 Q2320.7188,198.5 2321.25,199 Z " fill="#000000"/><text fill="#000000" font-family="sans-serif" font-size="12" lengthAdjust="spacing" textLength="65" x="2339.75" y="207.4102">Observatory</text><line style="stroke:#A80036;stroke-width:1.5;" x1="2234" x2="2478" y1="218.5" y2="218.5"/><line style="stroke:#A80036;stroke-width:1.5;" x1="2234" x2="2478" y1="226.5" y2="226.5"/><ellipse cx="2244" cy="237.5" fill="#84BE84" rx="3" ry="3" style="stroke:#038048;stroke-width:1.0;"/><text fill="#000000" font-family="sans-serif" font-size="11" lengthAdjust="spacing" textLength="220" x="2253" y="241.9189">«Create» Observatory(String,int,String,String)</text><!--MD5=[d38eda613204e022b072d9f7a48a1068]
class fr.unice.polytech.citadelle.game.purple_districts.HauntedCity--><rect codeLine="7" fill="#FEFECE" filter="url(#f1citmd6v9bgg4)" height="103.3438" id="fr.unice.polytech.citadelle.game.purple_districts.HauntedCity" style="stroke:#A80036;stroke-width:1.5;" width="279" x="824.5" y="166"/><ellipse cx="926.25" cy="182" fill="#ADD1B2" rx="11" ry="11" style="stroke:#A80036;stroke-width:1.0;"/><path d="M928.25,178.5 Q928.4531,178 928.6875,177.75 Q928.9219,177.5 929.1875,177.5 Q929.6563,177.5 929.9531,177.7813 Q930.25,178.0625 930.25,178.7188 L930.25,180.2813 Q930.25,180.9375 929.9688,181.2188 Q929.6875,181.5 929.25,181.5 Q928.8594,181.5 928.6094,181.3281 Q928.3594,181.1563 928.25,180.7031 Q928.2031,180.3906 928.0313,180.2188 Q927.7188,179.8906 927.1563,179.7031 Q926.5938,179.5 926.0313,179.5 Q925.3281,179.5 924.7344,179.7813 Q924.1563,180.0625 923.7031,180.6875 Q923.25,181.3125 923.25,182.1719 L923.25,183.0938 Q923.25,184.125 924.0938,184.8125 Q924.9375,185.5 926.4375,185.5 Q927.3281,185.5 927.9531,185.2969 Q928.3125,185.1875 928.7188,184.8281 Q928.9844,184.625 929.125,184.5625 Q929.2656,184.5 929.4375,184.5 Q929.7656,184.5 930,184.7656 Q930.25,185.0156 930.25,185.375 Q930.25,185.7188 929.9063,186.125 Q929.4063,186.7188 928.6094,187.0469 Q927.5625,187.5 926.2813,187.5 Q924.7813,187.5 923.5781,186.9063 Q922.6094,186.4375 921.9219,185.4219 Q921.25,184.4063 921.25,183.2031 L921.25,182.1094 Q921.25,180.8594 921.8438,179.7656 Q922.4531,178.6719 923.5,178.0938 Q924.5625,177.5 925.75,177.5 Q926.4688,177.5 927.0938,177.75 Q927.7188,178 928.25,178.5 Z " fill="#000000"/><text fill="#000000" font-family="sans-serif" font-size="12" lengthAdjust="spacing" textLength="67" x="946.75" y="186.9102">HauntedCity</text><line style="stroke:#A80036;stroke-width:1.5;" x1="825.5" x2="1102.5" y1="198" y2="198"/><rect fill="none" height="6" style="stroke:#C82930;stroke-width:1.0;" width="6" x="832.5" y="206"/><text fill="#000000" font-family="sans-serif" font-size="11" lengthAdjust="spacing" textLength="62" x="844.5" y="213.4189">int roundBuilt</text><line style="stroke:#A80036;stroke-width:1.5;" x1="825.5" x2="1102.5" y1="219.8359" y2="219.8359"/><ellipse cx="835.5" cy="230.8359" fill="#84BE84" rx="3" ry="3" style="stroke:#038048;stroke-width:1.0;"/><text fill="#000000" font-family="sans-serif" font-size="11" lengthAdjust="spacing" textLength="253" x="844.5" y="235.2549">«Create» HauntedCity(String,int,String,String,Integer)</text><ellipse cx="835.5" cy="244.6719" fill="#84BE84" rx="3" ry="3" style="stroke:#038048;stroke-width:1.0;"/><text fill="#000000" font-family="sans-serif" font-size="11" lengthAdjust="spacing" textLength="88" x="844.5" y="249.0908">int getRoundBuilt()</text><ellipse cx="835.5" cy="258.5078" fill="#84BE84" rx="3" ry="3" style="stroke:#038048;stroke-width:1.0;"/><text fill="#000000" font-family="sans-serif" font-size="11" lengthAdjust="spacing" textLength="130" x="844.5" y="262.9268">void setRoundBuilt(Integer)</text><!--MD5=[3668c809bdd2dbd528a0d4a1f4964608]
class fr.unice.polytech.citadelle.game.purple_districts.Graveyard--><rect codeLine="13" fill="#FEFECE" filter="url(#f1citmd6v9bgg4)" height="61.8359" id="fr.unice.polytech.citadelle.game.purple_districts.Graveyard" style="stroke:#A80036;stroke-width:1.5;" width="237" x="1960.5" y="186.5"/><ellipse cx="2047.25" cy="202.5" fill="#ADD1B2" rx="11" ry="11" style="stroke:#A80036;stroke-width:1.0;"/><path d="M2049.25,199 Q2049.4531,198.5 2049.6875,198.25 Q2049.9219,198 2050.1875,198 Q2050.6563,198 2050.9531,198.2813 Q2051.25,198.5625 2051.25,199.2188 L2051.25,200.7813 Q2051.25,201.4375 2050.9688,201.7188 Q2050.6875,202 2050.25,202 Q2049.8594,202 2049.6094,201.8281 Q2049.3594,201.6563 2049.25,201.2031 Q2049.2031,200.8906 2049.0313,200.7188 Q2048.7188,200.3906 2048.1563,200.2031 Q2047.5938,200 2047.0313,200 Q2046.3281,200 2045.7344,200.2813 Q2045.1563,200.5625 2044.7031,201.1875 Q2044.25,201.8125 2044.25,202.6719 L2044.25,203.5938 Q2044.25,204.625 2045.0938,205.3125 Q2045.9375,206 2047.4375,206 Q2048.3281,206 2048.9531,205.7969 Q2049.3125,205.6875 2049.7188,205.3281 Q2049.9844,205.125 2050.125,205.0625 Q2050.2656,205 2050.4375,205 Q2050.7656,205 2051,205.2656 Q2051.25,205.5156 2051.25,205.875 Q2051.25,206.2188 2050.9063,206.625 Q2050.4063,207.2188 2049.6094,207.5469 Q2048.5625,208 2047.2813,208 Q2045.7813,208 2044.5781,207.4063 Q2043.6094,206.9375 2042.9219,205.9219 Q2042.25,204.9063 2042.25,203.7031 L2042.25,202.6094 Q2042.25,201.3594 2042.8438,200.2656 Q2043.4531,199.1719 2044.5,198.5938 Q2045.5625,198 2046.75,198 Q2047.4688,198 2048.0938,198.25 Q2048.7188,198.5 2049.25,199 Z " fill="#000000"/><text fill="#000000" font-family="sans-serif" font-size="12" lengthAdjust="spacing" textLength="55" x="2067.75" y="207.4102">Graveyard</text><line style="stroke:#A80036;stroke-width:1.5;" x1="1961.5" x2="2196.5" y1="218.5" y2="218.5"/><line style="stroke:#A80036;stroke-width:1.5;" x1="1961.5" x2="2196.5" y1="226.5" y2="226.5"/><ellipse cx="1971.5" cy="237.5" fill="#84BE84" rx="3" ry="3" style="stroke:#038048;stroke-width:1.0;"/><text fill="#000000" font-family="sans-serif" font-size="11" lengthAdjust="spacing" textLength="211" x="1980.5" y="241.9189">«Create» Graveyard(String,int,String,String)</text><!--MD5=[3e675540be6669ce2d832df6e274f4e2]
class fr.unice.polytech.citadelle.game.purple_districts.SchoolOfMagic--><rect codeLine="16" fill="#FEFECE" filter="url(#f1citmd6v9bgg4)" height="61.8359" id="fr.unice.polytech.citadelle.game.purple_districts.SchoolOfMagic" style="stroke:#A80036;stroke-width:1.5;" width="258" x="1139" y="186.5"/><ellipse cx="1222.75" cy="202.5" fill="#ADD1B2" rx="11" ry="11" style="stroke:#A80036;stroke-width:1.0;"/><path d="M1224.75,199 Q1224.9531,198.5 1225.1875,198.25 Q1225.4219,198 1225.6875,198 Q1226.1563,198 1226.4531,198.2813 Q1226.75,198.5625 1226.75,199.2188 L1226.75,200.7813 Q1226.75,201.4375 1226.4688,201.7188 Q1226.1875,202 1225.75,202 Q1225.3594,202 1225.1094,201.8281 Q1224.8594,201.6563 1224.75,201.2031 Q1224.7031,200.8906 1224.5313,200.7188 Q1224.2188,200.3906 1223.6563,200.2031 Q1223.0938,200 1222.5313,200 Q1221.8281,200 1221.2344,200.2813 Q1220.6563,200.5625 1220.2031,201.1875 Q1219.75,201.8125 1219.75,202.6719 L1219.75,203.5938 Q1219.75,204.625 1220.5938,205.3125 Q1221.4375,206 1222.9375,206 Q1223.8281,206 1224.4531,205.7969 Q1224.8125,205.6875 1225.2188,205.3281 Q1225.4844,205.125 1225.625,205.0625 Q1225.7656,205 1225.9375,205 Q1226.2656,205 1226.5,205.2656 Q1226.75,205.5156 1226.75,205.875 Q1226.75,206.2188 1226.4063,206.625 Q1225.9063,207.2188 1225.1094,207.5469 Q1224.0625,208 1222.7813,208 Q1221.2813,208 1220.0781,207.4063 Q1219.1094,206.9375 1218.4219,205.9219 Q1217.75,204.9063 1217.75,203.7031 L1217.75,202.6094 Q1217.75,201.3594 1218.3438,200.2656 Q1218.9531,199.1719 1220,198.5938 Q1221.0625,198 1222.25,198 Q1222.9688,198 1223.5938,198.25 Q1224.2188,198.5 1224.75,199 Z " fill="#000000"/><text fill="#000000" font-family="sans-serif" font-size="12" lengthAdjust="spacing" textLength="82" x="1243.25" y="207.4102">SchoolOfMagic</text><line style="stroke:#A80036;stroke-width:1.5;" x1="1140" x2="1396" y1="218.5" y2="218.5"/><line style="stroke:#A80036;stroke-width:1.5;" x1="1140" x2="1396" y1="226.5" y2="226.5"/><ellipse cx="1150" cy="237.5" fill="#84BE84" rx="3" ry="3" style="stroke:#038048;stroke-width:1.0;"/><text fill="#000000" font-family="sans-serif" font-size="11" lengthAdjust="spacing" textLength="232" x="1159" y="241.9189">«Create» SchoolOfMagic(String,int,String,String)</text><!--MD5=[6042fd6957cb1d41c5f550353e605e92]
class fr.unice.polytech.citadelle.game.purple_districts.Laboratory--><rect codeLine="19" fill="#FEFECE" filter="url(#f1citmd6v9bgg4)" height="61.8359" id="fr.unice.polytech.citadelle.game.purple_districts.Laboratory" style="stroke:#A80036;stroke-width:1.5;" width="238" x="1687" y="186.5"/><ellipse cx="1772.75" cy="202.5" fill="#ADD1B2" rx="11" ry="11" style="stroke:#A80036;stroke-width:1.0;"/><path d="M1774.75,199 Q1774.9531,198.5 1775.1875,198.25 Q1775.4219,198 1775.6875,198 Q1776.1563,198 1776.4531,198.2813 Q1776.75,198.5625 1776.75,199.2188 L1776.75,200.7813 Q1776.75,201.4375 1776.4688,201.7188 Q1776.1875,202 1775.75,202 Q1775.3594,202 1775.1094,201.8281 Q1774.8594,201.6563 1774.75,201.2031 Q1774.7031,200.8906 1774.5313,200.7188 Q1774.2188,200.3906 1773.6563,200.2031 Q1773.0938,200 1772.5313,200 Q1771.8281,200 1771.2344,200.2813 Q1770.6563,200.5625 1770.2031,201.1875 Q1769.75,201.8125 1769.75,202.6719 L1769.75,203.5938 Q1769.75,204.625 1770.5938,205.3125 Q1771.4375,206 1772.9375,206 Q1773.8281,206 1774.4531,205.7969 Q1774.8125,205.6875 1775.2188,205.3281 Q1775.4844,205.125 1775.625,205.0625 Q1775.7656,205 1775.9375,205 Q1776.2656,205 1776.5,205.2656 Q1776.75,205.5156 1776.75,205.875 Q1776.75,206.2188 1776.4063,206.625 Q1775.9063,207.2188 1775.1094,207.5469 Q1774.0625,208 1772.7813,208 Q1771.2813,208 1770.0781,207.4063 Q1769.1094,206.9375 1768.4219,205.9219 Q1767.75,204.9063 1767.75,203.7031 L1767.75,202.6094 Q1767.75,201.3594 1768.3438,200.2656 Q1768.9531,199.1719 1770,198.5938 Q1771.0625,198 1772.25,198 Q1772.9688,198 1773.5938,198.25 Q1774.2188,198.5 1774.75,199 Z " fill="#000000"/><text fill="#000000" font-family="sans-serif" font-size="12" lengthAdjust="spacing" textLength="58" x="1793.25" y="207.4102">Laboratory</text><line style="stroke:#A80036;stroke-width:1.5;" x1="1688" x2="1924" y1="218.5" y2="218.5"/><line style="stroke:#A80036;stroke-width:1.5;" x1="1688" x2="1924" y1="226.5" y2="226.5"/><ellipse cx="1698" cy="237.5" fill="#84BE84" rx="3" ry="3" style="stroke:#038048;stroke-width:1.0;"/><text fill="#000000" font-family="sans-serif" font-size="11" lengthAdjust="spacing" textLength="212" x="1707" y="241.9189">«Create» Laboratory(String,int,String,String)</text><!--MD5=[09a85b709a332de6f3f1e9313e6809b4]
class fr.unice.polytech.citadelle.game.purple_districts.DragonGate--><rect codeLine="22" fill="#FEFECE" filter="url(#f1citmd6v9bgg4)" height="61.8359" id="fr.unice.polytech.citadelle.game.purple_districts.DragonGate" style="stroke:#A80036;stroke-width:1.5;" width="243" x="300.5" y="186.5"/><ellipse cx="384.25" cy="202.5" fill="#ADD1B2" rx="11" ry="11" style="stroke:#A80036;stroke-width:1.0;"/><path d="M386.25,199 Q386.4531,198.5 386.6875,198.25 Q386.9219,198 387.1875,198 Q387.6563,198 387.9531,198.2813 Q388.25,198.5625 388.25,199.2188 L388.25,200.7813 Q388.25,201.4375 387.9688,201.7188 Q387.6875,202 387.25,202 Q386.8594,202 386.6094,201.8281 Q386.3594,201.6563 386.25,201.2031 Q386.2031,200.8906 386.0313,200.7188 Q385.7188,200.3906 385.1563,200.2031 Q384.5938,200 384.0313,200 Q383.3281,200 382.7344,200.2813 Q382.1563,200.5625 381.7031,201.1875 Q381.25,201.8125 381.25,202.6719 L381.25,203.5938 Q381.25,204.625 382.0938,205.3125 Q382.9375,206 384.4375,206 Q385.3281,206 385.9531,205.7969 Q386.3125,205.6875 386.7188,205.3281 Q386.9844,205.125 387.125,205.0625 Q387.2656,205 387.4375,205 Q387.7656,205 388,205.2656 Q388.25,205.5156 388.25,205.875 Q388.25,206.2188 387.9063,206.625 Q387.4063,207.2188 386.6094,207.5469 Q385.5625,208 384.2813,208 Q382.7813,208 381.5781,207.4063 Q380.6094,206.9375 379.9219,205.9219 Q379.25,204.9063 379.25,203.7031 L379.25,202.6094 Q379.25,201.3594 379.8438,200.2656 Q380.4531,199.1719 381.5,198.5938 Q382.5625,198 383.75,198 Q384.4688,198 385.0938,198.25 Q385.7188,198.5 386.25,199 Z " fill="#000000"/><text fill="#000000" font-family="sans-serif" font-size="12" lengthAdjust="spacing" textLength="67" x="404.75" y="207.4102">DragonGate</text><line style="stroke:#A80036;stroke-width:1.5;" x1="301.5" x2="542.5" y1="218.5" y2="218.5"/><line style="stroke:#A80036;stroke-width:1.5;" x1="301.5" x2="542.5" y1="226.5" y2="226.5"/><ellipse cx="311.5" cy="237.5" fill="#84BE84" rx="3" ry="3" style="stroke:#038048;stroke-width:1.0;"/><text fill="#000000" font-family="sans-serif" font-size="11" lengthAdjust="spacing" textLength="217" x="320.5" y="241.9189">«Create» DragonGate(String,int,String,String)</text><!--MD5=[2de410c0a2499dc9ae8f7e907ffb8283]
class fr.unice.polytech.citadelle.game.purple_districts.Keep--><rect codeLine="25" fill="#FEFECE" filter="url(#f1citmd6v9bgg4)" height="61.8359" id="fr.unice.polytech.citadelle.game.purple_districts.Keep" style="stroke:#A80036;stroke-width:1.5;" width="210" x="579" y="186.5"/><ellipse cx="665.25" cy="202.5" fill="#ADD1B2" rx="11" ry="11" style="stroke:#A80036;stroke-width:1.0;"/><path d="M667.25,199 Q667.4531,198.5 667.6875,198.25 Q667.9219,198 668.1875,198 Q668.6563,198 668.9531,198.2813 Q669.25,198.5625 669.25,199.2188 L669.25,200.7813 Q669.25,201.4375 668.9688,201.7188 Q668.6875,202 668.25,202 Q667.8594,202 667.6094,201.8281 Q667.3594,201.6563 667.25,201.2031 Q667.2031,200.8906 667.0313,200.7188 Q666.7188,200.3906 666.1563,200.2031 Q665.5938,200 665.0313,200 Q664.3281,200 663.7344,200.2813 Q663.1563,200.5625 662.7031,201.1875 Q662.25,201.8125 662.25,202.6719 L662.25,203.5938 Q662.25,204.625 663.0938,205.3125 Q663.9375,206 665.4375,206 Q666.3281,206 666.9531,205.7969 Q667.3125,205.6875 667.7188,205.3281 Q667.9844,205.125 668.125,205.0625 Q668.2656,205 668.4375,205 Q668.7656,205 669,205.2656 Q669.25,205.5156 669.25,205.875 Q669.25,206.2188 668.9063,206.625 Q668.4063,207.2188 667.6094,207.5469 Q666.5625,208 665.2813,208 Q663.7813,208 662.5781,207.4063 Q661.6094,206.9375 660.9219,205.9219 Q660.25,204.9063 660.25,203.7031 L660.25,202.6094 Q660.25,201.3594 660.8438,200.2656 Q661.4531,199.1719 662.5,198.5938 Q663.5625,198 664.75,198 Q665.4688,198 666.0938,198.25 Q666.7188,198.5 667.25,199 Z " fill="#000000"/><text fill="#000000" font-family="sans-serif" font-size="12" lengthAdjust="spacing" textLength="29" x="685.75" y="207.4102">Keep</text><line style="stroke:#A80036;stroke-width:1.5;" x1="580" x2="788" y1="218.5" y2="218.5"/><line style="stroke:#A80036;stroke-width:1.5;" x1="580" x2="788" y1="226.5" y2="226.5"/><ellipse cx="590" cy="237.5" fill="#84BE84" rx="3" ry="3" style="stroke:#038048;stroke-width:1.0;"/><text fill="#000000" font-family="sans-serif" font-size="11" lengthAdjust="spacing" textLength="184" x="599" y="241.9189">«Create» Keep(String,int,String,String)</text><!--MD5=[918ef8c921ec2a8cf0555a14d3eb7667]
class fr.unice.polytech.citadelle.game.purple_districts.Library--><rect codeLine="28" fill="#FEFECE" filter="url(#f1citmd6v9bgg4)" height="61.8359" id="fr.unice.polytech.citadelle.game.purple_districts.Library" style="stroke:#A80036;stroke-width:1.5;" width="219" x="1432.5" y="186.5"/><ellipse cx="1519.25" cy="202.5" fill="#ADD1B2" rx="11" ry="11" style="stroke:#A80036;stroke-width:1.0;"/><path d="M1521.25,199 Q1521.4531,198.5 1521.6875,198.25 Q1521.9219,198 1522.1875,198 Q1522.6563,198 1522.9531,198.2813 Q1523.25,198.5625 1523.25,199.2188 L1523.25,200.7813 Q1523.25,201.4375 1522.9688,201.7188 Q1522.6875,202 1522.25,202 Q1521.8594,202 1521.6094,201.8281 Q1521.3594,201.6563 1521.25,201.2031 Q1521.2031,200.8906 1521.0313,200.7188 Q1520.7188,200.3906 1520.1563,200.2031 Q1519.5938,200 1519.0313,200 Q1518.3281,200 1517.7344,200.2813 Q1517.1563,200.5625 1516.7031,201.1875 Q1516.25,201.8125 1516.25,202.6719 L1516.25,203.5938 Q1516.25,204.625 1517.0938,205.3125 Q1517.9375,206 1519.4375,206 Q1520.3281,206 1520.9531,205.7969 Q1521.3125,205.6875 1521.7188,205.3281 Q1521.9844,205.125 1522.125,205.0625 Q1522.2656,205 1522.4375,205 Q1522.7656,205 1523,205.2656 Q1523.25,205.5156 1523.25,205.875 Q1523.25,206.2188 1522.9063,206.625 Q1522.4063,207.2188 1521.6094,207.5469 Q1520.5625,208 1519.2813,208 Q1517.7813,208 1516.5781,207.4063 Q1515.6094,206.9375 1514.9219,205.9219 Q1514.25,204.9063 1514.25,203.7031 L1514.25,202.6094 Q1514.25,201.3594 1514.8438,200.2656 Q1515.4531,199.1719 1516.5,198.5938 Q1517.5625,198 1518.75,198 Q1519.4688,198 1520.0938,198.25 Q1520.7188,198.5 1521.25,199 Z " fill="#000000"/><text fill="#000000" font-family="sans-serif" font-size="12" lengthAdjust="spacing" textLength="37" x="1539.75" y="207.4102">Library</text><line style="stroke:#A80036;stroke-width:1.5;" x1="1433.5" x2="1650.5" y1="218.5" y2="218.5"/><line style="stroke:#A80036;stroke-width:1.5;" x1="1433.5" x2="1650.5" y1="226.5" y2="226.5"/><ellipse cx="1443.5" cy="237.5" fill="#84BE84" rx="3" ry="3" style="stroke:#038048;stroke-width:1.0;"/><text fill="#000000" font-family="sans-serif" font-size="11" lengthAdjust="spacing" textLength="193" x="1452.5" y="241.9189">«Create» Library(String,int,String,String)</text><!--MD5=[2093cd8e145ba6e6fbdd4da51ea79fe2]
class fr.unice.polytech.citadelle.game.purple_districts.University--><rect codeLine="31" fill="#FEFECE" filter="url(#f1citmd6v9bgg4)" height="61.8359" id="fr.unice.polytech.citadelle.game.purple_districts.University" style="stroke:#A80036;stroke-width:1.5;" width="233" x="32.5" y="186.5"/><ellipse cx="118.25" cy="202.5" fill="#ADD1B2" rx="11" ry="11" style="stroke:#A80036;stroke-width:1.0;"/><path d="M120.25,199 Q120.4531,198.5 120.6875,198.25 Q120.9219,198 121.1875,198 Q121.6563,198 121.9531,198.2813 Q122.25,198.5625 122.25,199.2188 L122.25,200.7813 Q122.25,201.4375 121.9688,201.7188 Q121.6875,202 121.25,202 Q120.8594,202 120.6094,201.8281 Q120.3594,201.6563 120.25,201.2031 Q120.2031,200.8906 120.0313,200.7188 Q119.7188,200.3906 119.1563,200.2031 Q118.5938,200 118.0313,200 Q117.3281,200 116.7344,200.2813 Q116.1563,200.5625 115.7031,201.1875 Q115.25,201.8125 115.25,202.6719 L115.25,203.5938 Q115.25,204.625 116.0938,205.3125 Q116.9375,206 118.4375,206 Q119.3281,206 119.9531,205.7969 Q120.3125,205.6875 120.7188,205.3281 Q120.9844,205.125 121.125,205.0625 Q121.2656,205 121.4375,205 Q121.7656,205 122,205.2656 Q122.25,205.5156 122.25,205.875 Q122.25,206.2188 121.9063,206.625 Q121.4063,207.2188 120.6094,207.5469 Q119.5625,208 118.2813,208 Q116.7813,208 115.5781,207.4063 Q114.6094,206.9375 113.9219,205.9219 Q113.25,204.9063 113.25,203.7031 L113.25,202.6094 Q113.25,201.3594 113.8438,200.2656 Q114.4531,199.1719 115.5,198.5938 Q116.5625,198 117.75,198 Q118.4688,198 119.0938,198.25 Q119.7188,198.5 120.25,199 Z " fill="#000000"/><text fill="#000000" font-family="sans-serif" font-size="12" lengthAdjust="spacing" textLength="53" x="138.75" y="207.4102">University</text><line style="stroke:#A80036;stroke-width:1.5;" x1="33.5" x2="264.5" y1="218.5" y2="218.5"/><line style="stroke:#A80036;stroke-width:1.5;" x1="33.5" x2="264.5" y1="226.5" y2="226.5"/><ellipse cx="43.5" cy="237.5" fill="#84BE84" rx="3" ry="3" style="stroke:#038048;stroke-width:1.0;"/><text fill="#000000" font-family="sans-serif" font-size="11" lengthAdjust="spacing" textLength="207" x="52.5" y="241.9189">«Create» University(String,int,String,String)</text><!--MD5=[099ac1825a51db68aa2a204785e5c76b]
class fr.unice.polytech.citadelle.game.SpellDistrict--><rect fill="#FEFECE" filter="url(#f1citmd6v9bgg4)" height="48" id="fr.unice.polytech.citadelle.game.SpellDistrict" style="stroke:#A80036;stroke-width:1.5;" width="98" x="1423" y="42"/><ellipse cx="1438" cy="58" fill="#ADD1B2" rx="11" ry="11" style="stroke:#A80036;stroke-width:1.0;"/><path d="M1440,54.5 Q1440.2031,54 1440.4375,53.75 Q1440.6719,53.5 1440.9375,53.5 Q1441.4063,53.5 1441.7031,53.7813 Q1442,54.0625 1442,54.7188 L1442,56.2813 Q1442,56.9375 1441.7188,57.2188 Q1441.4375,57.5 1441,57.5 Q1440.6094,57.5 1440.3594,57.3281 Q1440.1094,57.1563 1440,56.7031 Q1439.9531,56.3906 1439.7813,56.2188 Q1439.4688,55.8906 1438.9063,55.7031 Q1438.3438,55.5 1437.7813,55.5 Q1437.0781,55.5 1436.4844,55.7813 Q1435.9063,56.0625 1435.4531,56.6875 Q1435,57.3125 1435,58.1719 L1435,59.0938 Q1435,60.125 1435.8438,60.8125 Q1436.6875,61.5 1438.1875,61.5 Q1439.0781,61.5 1439.7031,61.2969 Q1440.0625,61.1875 1440.4688,60.8281 Q1440.7344,60.625 1440.875,60.5625 Q1441.0156,60.5 1441.1875,60.5 Q1441.5156,60.5 1441.75,60.7656 Q1442,61.0156 1442,61.375 Q1442,61.7188 1441.6563,62.125 Q1441.1563,62.7188 1440.3594,63.0469 Q1439.3125,63.5 1438.0313,63.5 Q1436.5313,63.5 1435.3281,62.9063 Q1434.3594,62.4375 1433.6719,61.4219 Q1433,60.4063 1433,59.2031 L1433,58.1094 Q1433,56.8594 1433.5938,55.7656 Q1434.2031,54.6719 1435.25,54.0938 Q1436.3125,53.5 1437.5,53.5 Q1438.2188,53.5 1438.8438,53.75 Q1439.4688,54 1440,54.5 Z " fill="#000000"/><text fill="#000000" font-family="sans-serif" font-size="12" lengthAdjust="spacing" textLength="66" x="1452" y="62.9102">SpellDistrict</text><line style="stroke:#A80036;stroke-width:1.5;" x1="1424" x2="1520" y1="74" y2="74"/><line style="stroke:#A80036;stroke-width:1.5;" x1="1424" x2="1520" y1="82" y2="82"/><!--MD5=[0c7ae2a777e4331e792fa1b4b786a155]
class fr.unice.polytech.citadelle.game.ColorDistrict--><rect fill="#FEFECE" filter="url(#f1citmd6v9bgg4)" height="48" id="fr.unice.polytech.citadelle.game.ColorDistrict" style="stroke:#A80036;stroke-width:1.5;" width="100" x="1288" y="42"/><ellipse cx="1303" cy="58" fill="#ADD1B2" rx="11" ry="11" style="stroke:#A80036;stroke-width:1.0;"/><path d="M1305,54.5 Q1305.2031,54 1305.4375,53.75 Q1305.6719,53.5 1305.9375,53.5 Q1306.4063,53.5 1306.7031,53.7813 Q1307,54.0625 1307,54.7188 L1307,56.2813 Q1307,56.9375 1306.7188,57.2188 Q1306.4375,57.5 1306,57.5 Q1305.6094,57.5 1305.3594,57.3281 Q1305.1094,57.1563 1305,56.7031 Q1304.9531,56.3906 1304.7813,56.2188 Q1304.4688,55.8906 1303.9063,55.7031 Q1303.3438,55.5 1302.7813,55.5 Q1302.0781,55.5 1301.4844,55.7813 Q1300.9063,56.0625 1300.4531,56.6875 Q1300,57.3125 1300,58.1719 L1300,59.0938 Q1300,60.125 1300.8438,60.8125 Q1301.6875,61.5 1303.1875,61.5 Q1304.0781,61.5 1304.7031,61.2969 Q1305.0625,61.1875 1305.4688,60.8281 Q1305.7344,60.625 1305.875,60.5625 Q1306.0156,60.5 1306.1875,60.5 Q1306.5156,60.5 1306.75,60.7656 Q1307,61.0156 1307,61.375 Q1307,61.7188 1306.6563,62.125 Q1306.1563,62.7188 1305.3594,63.0469 Q1304.3125,63.5 1303.0313,63.5 Q1301.5313,63.5 1300.3281,62.9063 Q1299.3594,62.4375 1298.6719,61.4219 Q1298,60.4063 1298,59.2031 L1298,58.1094 Q1298,56.8594 1298.5938,55.7656 Q1299.2031,54.6719 1300.25,54.0938 Q1301.3125,53.5 1302.5,53.5 Q1303.2188,53.5 1303.8438,53.75 Q1304.4688,54 1305,54.5 Z " fill="#000000"/><text fill="#000000" font-family="sans-serif" font-size="12" lengthAdjust="spacing" textLength="68" x="1317" y="62.9102">ColorDistrict</text><line style="stroke:#A80036;stroke-width:1.5;" x1="1289" x2="1387" y1="74" y2="74"/><line style="stroke:#A80036;stroke-width:1.5;" x1="1289" x2="1387" y1="82" y2="82"/><!--MD5=[969c1c4cfef7e969a47096acbcbc4632]
class fr.unice.polytech.citadelle.game.BonusDistrict--><rect fill="#FEFECE" filter="url(#f1citmd6v9bgg4)" height="48" id="fr.unice.polytech.citadelle.game.BonusDistrict" style="stroke:#A80036;stroke-width:1.5;" width="106" x="1042" y="42"/><ellipse cx="1057" cy="58" fill="#ADD1B2" rx="11" ry="11" style="stroke:#A80036;stroke-width:1.0;"/><path d="M1059,54.5 Q1059.2031,54 1059.4375,53.75 Q1059.6719,53.5 1059.9375,53.5 Q1060.4063,53.5 1060.7031,53.7813 Q1061,54.0625 1061,54.7188 L1061,56.2813 Q1061,56.9375 1060.7188,57.2188 Q1060.4375,57.5 1060,57.5 Q1059.6094,57.5 1059.3594,57.3281 Q1059.1094,57.1563 1059,56.7031 Q1058.9531,56.3906 1058.7813,56.2188 Q1058.4688,55.8906 1057.9063,55.7031 Q1057.3438,55.5 1056.7813,55.5 Q1056.0781,55.5 1055.4844,55.7813 Q1054.9063,56.0625 1054.4531,56.6875 Q1054,57.3125 1054,58.1719 L1054,59.0938 Q1054,60.125 1054.8438,60.8125 Q1055.6875,61.5 1057.1875,61.5 Q1058.0781,61.5 1058.7031,61.2969 Q1059.0625,61.1875 1059.4688,60.8281 Q1059.7344,60.625 1059.875,60.5625 Q1060.0156,60.5 1060.1875,60.5 Q1060.5156,60.5 1060.75,60.7656 Q1061,61.0156 1061,61.375 Q1061,61.7188 1060.6563,62.125 Q1060.1563,62.7188 1059.3594,63.0469 Q1058.3125,63.5 1057.0313,63.5 Q1055.5313,63.5 1054.3281,62.9063 Q1053.3594,62.4375 1052.6719,61.4219 Q1052,60.4063 1052,59.2031 L1052,58.1094 Q1052,56.8594 1052.5938,55.7656 Q1053.2031,54.6719 1054.25,54.0938 Q1055.3125,53.5 1056.5,53.5 Q1057.2188,53.5 1057.8438,53.75 Q1058.4688,54 1059,54.5 Z " fill="#000000"/><text fill="#000000" font-family="sans-serif" font-size="12" lengthAdjust="spacing" textLength="74" x="1071" y="62.9102">BonusDistrict</text><line style="stroke:#A80036;stroke-width:1.5;" x1="1043" x2="1147" y1="74" y2="74"/><line style="stroke:#A80036;stroke-width:1.5;" x1="1043" x2="1147" y1="82" y2="82"/><!--MD5=[3021862642d904cdf90cbc4fef1770d9]
class fr.unice.polytech.citadelle.game.District--><rect fill="#FEFECE" filter="url(#f1citmd6v9bgg4)" height="48" id="fr.unice.polytech.citadelle.game.District" style="stroke:#A80036;stroke-width:1.5;" width="70" x="1183" y="42"/><ellipse cx="1198" cy="58" fill="#ADD1B2" rx="11" ry="11" style="stroke:#A80036;stroke-width:1.0;"/><path d="M1200,54.5 Q1200.2031,54 1200.4375,53.75 Q1200.6719,53.5 1200.9375,53.5 Q1201.4063,53.5 1201.7031,53.7813 Q1202,54.0625 1202,54.7188 L1202,56.2813 Q1202,56.9375 1201.7188,57.2188 Q1201.4375,57.5 1201,57.5 Q1200.6094,57.5 1200.3594,57.3281 Q1200.1094,57.1563 1200,56.7031 Q1199.9531,56.3906 1199.7813,56.2188 Q1199.4688,55.8906 1198.9063,55.7031 Q1198.3438,55.5 1197.7813,55.5 Q1197.0781,55.5 1196.4844,55.7813 Q1195.9063,56.0625 1195.4531,56.6875 Q1195,57.3125 1195,58.1719 L1195,59.0938 Q1195,60.125 1195.8438,60.8125 Q1196.6875,61.5 1198.1875,61.5 Q1199.0781,61.5 1199.7031,61.2969 Q1200.0625,61.1875 1200.4688,60.8281 Q1200.7344,60.625 1200.875,60.5625 Q1201.0156,60.5 1201.1875,60.5 Q1201.5156,60.5 1201.75,60.7656 Q1202,61.0156 1202,61.375 Q1202,61.7188 1201.6563,62.125 Q1201.1563,62.7188 1200.3594,63.0469 Q1199.3125,63.5 1198.0313,63.5 Q1196.5313,63.5 1195.3281,62.9063 Q1194.3594,62.4375 1193.6719,61.4219 Q1193,60.4063 1193,59.2031 L1193,58.1094 Q1193,56.8594 1193.5938,55.7656 Q1194.2031,54.6719 1195.25,54.0938 Q1196.3125,53.5 1197.5,53.5 Q1198.2188,53.5 1198.8438,53.75 Q1199.4688,54 1200,54.5 Z " fill="#000000"/><text fill="#000000" font-family="sans-serif" font-size="12" lengthAdjust="spacing" textLength="38" x="1212" y="62.9102">District</text><line style="stroke:#A80036;stroke-width:1.5;" x1="1184" x2="1252" y1="74" y2="74"/><line style="stroke:#A80036;stroke-width:1.5;" x1="1184" x2="1252" y1="82" y2="82"/><!--MD5=[d677708ccfff3d4a1db3aef84fa5ccc3]
reverse link fr.unice.polytech.citadelle.game.SpellDistrict to fr.unice.polytech.citadelle.game.purple_districts.Smithy--><path codeLine="36" d="M1541.4,68.39 C1757.27,73.03 2407.8,89.58 2497,122 C2534.26,135.54 2569.74,164.06 2593.49,186.25 " fill="none" id="fr.unice.polytech.citadelle.game.SpellDistrict-backto-fr.unice.polytech.citadelle.game.purple_districts.Smithy" style="stroke:#A80036;stroke-width:1.0;"/><polygon fill="none" points="1541.16,75.39,1521.32,67.96,1541.46,61.39,1541.16,75.39" style="stroke:#A80036;stroke-width:1.0;"/><!--MD5=[c9822312f2dc45bf3de1834b768dd18a]
reverse link fr.unice.polytech.citadelle.game.SpellDistrict to fr.unice.polytech.citadelle.game.purple_districts.Observatory--><path codeLine="37" d="M1541.19,67.63 C1701.01,69.8 2091.62,79.44 2215,122 C2255.39,135.93 2295.26,164.4 2322.24,186.47 " fill="none" id="fr.unice.polytech.citadelle.game.SpellDistrict-backto-fr.unice.polytech.citadelle.game.purple_districts.Observatory" style="stroke:#A80036;stroke-width:1.0;"/><polygon fill="none" points="1541.01,74.63,1521.1,67.38,1541.19,60.63,1541.01,74.63" style="stroke:#A80036;stroke-width:1.0;"/><!--MD5=[1162afd6bfaab758c5c3d9a1acc415ba]
reverse link fr.unice.polytech.citadelle.game.ColorDistrict to fr.unice.polytech.citadelle.game.purple_districts.HauntedCity--><path codeLine="38" d="M1295.72,101.81 C1287.9,106.7 1279.5,111.06 1271,114 C1208.32,135.66 1185.43,102.63 1122,122 C1090.51,131.61 1058.79,148.79 1032.11,165.88 " fill="none" id="fr.unice.polytech.citadelle.game.ColorDistrict-backto-fr.unice.polytech.citadelle.game.purple_districts.HauntedCity" style="stroke:#A80036;stroke-width:1.0;"/><polygon fill="none" points="1291.83,95.98,1312.21,90.2,1299.88,107.43,1291.83,95.98" style="stroke:#A80036;stroke-width:1.0;"/><!--MD5=[b34d7481f559025bd72851e0361865c3]
reverse link fr.unice.polytech.citadelle.game.SpellDistrict to fr.unice.polytech.citadelle.game.purple_districts.Graveyard--><path codeLine="39" d="M1541.1,70.93 C1653.63,78.03 1871.13,94.8 1943,122 C1981.72,136.65 2019.91,164.72 2045.92,186.48 " fill="none" id="fr.unice.polytech.citadelle.game.SpellDistrict-backto-fr.unice.polytech.citadelle.game.purple_districts.Graveyard" style="stroke:#A80036;stroke-width:1.0;"/><polygon fill="none" points="1540.58,77.91,1521.04,69.7,1541.44,63.94,1540.58,77.91" style="stroke:#A80036;stroke-width:1.0;"/><!--MD5=[96e5a38cdfcfc36f3f06946272b4105b]
reverse link fr.unice.polytech.citadelle.game.ColorDistrict to fr.unice.polytech.citadelle.game.purple_districts.SchoolOfMagic--><path codeLine="40" d="M1318.66,108.3 C1307.06,133.07 1292.57,164.02 1282.06,186.47 " fill="none" id="fr.unice.polytech.citadelle.game.ColorDistrict-backto-fr.unice.polytech.citadelle.game.purple_districts.SchoolOfMagic" style="stroke:#A80036;stroke-width:1.0;"/><polygon fill="none" points="1312.4,105.18,1327.22,90.03,1325.07,111.11,1312.4,105.18" style="stroke:#A80036;stroke-width:1.0;"/><!--MD5=[a51f6fe5832e3f6d881c1e05956888bf]
reverse link fr.unice.polytech.citadelle.game.SpellDistrict to fr.unice.polytech.citadelle.game.purple_districts.Laboratory--><path codeLine="41" d="M1540.92,80.34 C1579.67,89.27 1628.29,102.93 1669,122 C1705.63,139.16 1743.17,165.81 1769.67,186.44 " fill="none" id="fr.unice.polytech.citadelle.game.SpellDistrict-backto-fr.unice.polytech.citadelle.game.purple_districts.Laboratory" style="stroke:#A80036;stroke-width:1.0;"/><polygon fill="none" points="1539.39,87.17,1521.37,76.03,1542.4,73.5,1539.39,87.17" style="stroke:#A80036;stroke-width:1.0;"/><!--MD5=[3c3e5ce32a85131544bd138eb03ca715]
reverse link fr.unice.polytech.citadelle.game.BonusDistrict to fr.unice.polytech.citadelle.game.purple_districts.DragonGate--><path codeLine="42" d="M1021.61,70.16 C895.83,76.31 644.64,91.99 562,122 C522.31,136.41 482.97,164.51 456.15,186.34 " fill="none" id="fr.unice.polytech.citadelle.game.BonusDistrict-backto-fr.unice.polytech.citadelle.game.purple_districts.DragonGate" style="stroke:#A80036;stroke-width:1.0;"/><polygon fill="none" points="1021.45,63.16,1041.76,69.21,1022.11,77.15,1021.45,63.16" style="stroke:#A80036;stroke-width:1.0;"/><!--MD5=[7213e5307283fca118f454c8eb4be799]
reverse link fr.unice.polytech.citadelle.game.District to fr.unice.polytech.citadelle.game.purple_districts.Keep--><path codeLine="43" d="M1184.23,103.43 C1178.57,107.7 1172.43,111.44 1166,114 C1128.93,128.75 844.63,108.74 807,122 C769.92,135.06 735.13,163.96 712.07,186.39 " fill="none" id="fr.unice.polytech.citadelle.game.District-backto-fr.unice.polytech.citadelle.game.purple_districts.Keep" style="stroke:#A80036;stroke-width:1.0;"/><polygon fill="none" points="1179.59,98.19,1199.17,90.1,1188.91,108.64,1179.59,98.19" style="stroke:#A80036;stroke-width:1.0;"/><!--MD5=[94068deb362d306a836070fe46387af8]
reverse link fr.unice.polytech.citadelle.game.SpellDistrict to fr.unice.polytech.citadelle.game.purple_districts.Library--><path codeLine="44" d="M1491.34,108.3 C1502.94,133.07 1517.43,164.02 1527.94,186.47 " fill="none" id="fr.unice.polytech.citadelle.game.SpellDistrict-backto-fr.unice.polytech.citadelle.game.purple_districts.Library" style="stroke:#A80036;stroke-width:1.0;"/><polygon fill="none" points="1484.93,111.11,1482.78,90.03,1497.6,105.18,1484.93,111.11" style="stroke:#A80036;stroke-width:1.0;"/><!--MD5=[3bdb25b81bc639c360abe64cdbbc4f94]
reverse link fr.unice.polytech.citadelle.game.BonusDistrict to fr.unice.polytech.citadelle.game.purple_districts.University--><path codeLine="45" d="M1021.8,66.93 C848.59,67.58 418.01,74.1 283,122 C244.1,135.8 206.28,164.29 180.79,186.39 " fill="none" id="fr.unice.polytech.citadelle.game.BonusDistrict-backto-fr.unice.polytech.citadelle.game.purple_districts.University" style="stroke:#A80036;stroke-width:1.0;"/><polygon fill="none" points="1021.83,59.93,1041.85,66.88,1021.87,73.93,1021.83,59.93" style="stroke:#A80036;stroke-width:1.0;"/><!--MD5=[39e0e6fd9ae6f81f98a5a44b405ce85a]
@startuml
class fr.unice.polytech.citadelle.game.purple_districts.Smithy {
+ <<Create>> Smithy(String,int,String,String)
}
class fr.unice.polytech.citadelle.game.purple_districts.Observatory {
+ <<Create>> Observatory(String,int,String,String)
}
class fr.unice.polytech.citadelle.game.purple_districts.HauntedCity {
- int roundBuilt
+ <<Create>> HauntedCity(String,int,String,String,Integer)
+ int getRoundBuilt()
+ void setRoundBuilt(Integer)
}
class fr.unice.polytech.citadelle.game.purple_districts.Graveyard {
+ <<Create>> Graveyard(String,int,String,String)
}
class fr.unice.polytech.citadelle.game.purple_districts.SchoolOfMagic {
+ <<Create>> SchoolOfMagic(String,int,String,String)
}
class fr.unice.polytech.citadelle.game.purple_districts.Laboratory {
+ <<Create>> Laboratory(String,int,String,String)
}
class fr.unice.polytech.citadelle.game.purple_districts.DragonGate {
+ <<Create>> DragonGate(String,int,String,String)
}
class fr.unice.polytech.citadelle.game.purple_districts.Keep {
+ <<Create>> Keep(String,int,String,String)
}
class fr.unice.polytech.citadelle.game.purple_districts.Library {
+ <<Create>> Library(String,int,String,String)
}
class fr.unice.polytech.citadelle.game.purple_districts.University {
+ <<Create>> University(String,int,String,String)
}


fr.unice.polytech.citadelle.game.SpellDistrict <|- - fr.unice.polytech.citadelle.game.purple_districts.Smithy
fr.unice.polytech.citadelle.game.SpellDistrict <|- - fr.unice.polytech.citadelle.game.purple_districts.Observatory
fr.unice.polytech.citadelle.game.ColorDistrict <|- - fr.unice.polytech.citadelle.game.purple_districts.HauntedCity
fr.unice.polytech.citadelle.game.SpellDistrict <|- - fr.unice.polytech.citadelle.game.purple_districts.Graveyard
fr.unice.polytech.citadelle.game.ColorDistrict <|- - fr.unice.polytech.citadelle.game.purple_districts.SchoolOfMagic
fr.unice.polytech.citadelle.game.SpellDistrict <|- - fr.unice.polytech.citadelle.game.purple_districts.Laboratory
fr.unice.polytech.citadelle.game.BonusDistrict <|- - fr.unice.polytech.citadelle.game.purple_districts.DragonGate
fr.unice.polytech.citadelle.game.District <|- - fr.unice.polytech.citadelle.game.purple_districts.Keep
fr.unice.polytech.citadelle.game.SpellDistrict <|- - fr.unice.polytech.citadelle.game.purple_districts.Library
fr.unice.polytech.citadelle.game.BonusDistrict <|- - fr.unice.polytech.citadelle.game.purple_districts.University
@enduml

PlantUML version 1.2021.16(Wed Dec 08 18:25:22 CET 2021)
(GPL source distribution)
Java Runtime: OpenJDK Runtime Environment
JVM: OpenJDK 64-Bit Server VM
Default Encoding: Cp1252
Language: fr
Country: FR
--></g></svg>